<?xml version="1.0" encoding="utf-8"?>
<!-- Generator: Adobe Illustrator 21.1.0, SVG Export Plug-In . SVG Version: 6.00 Build 0)  -->
<svg version="1.1" id="Layer_1" xmlns="http://www.w3.org/2000/svg" xmlns:xlink="http://www.w3.org/1999/xlink" x="0px" y="0px"
	 viewBox="0 0 230 239" style="enable-background:new 0 0 230 239;" xml:space="preserve">
<style type="text/css">
	.st0{fill:#11993E;}
	.st1{enable-background:new    ;}
	.st2{fill:#FFFFFF;}
	.st3{font-family:'JosefinSans';}
	.st4{font-size:33px;}
	.st5{fill:#DEE256;}
	.st6{fill:#63DBD8;}
	.st7{fill:#51BC3F;}
	.st8{fill:#E09927;}
	.st9{fill:#D12020;}
	.st10{fill:#134699;}
	.st11{fill:#2C2A9E;}
	.st12{fill:#F9F6E8;}
</style>
<g id="Layer_1_1_">
	<g id="XMLID_2_">
		<g>
			<path d="M-1571.6-3.8c5.1,11.7,7.7,24,7.7,36.7s-2.6,25-7.7,36.7c-3.3,7.5-7.6,14.5-12.7,21c1.7-2.9,3.2-5.8,4.5-8.9
				c4.9-11.2,7.5-23.2,7.5-35.6s-2.5-24.4-7.5-35.6c-4.7-10.7-11.4-20.2-19.9-28.4c-8.5-8.1-18.3-14.5-29.3-19
				c-11.3-4.6-23.4-6.9-35.8-6.9s-24.4,2.3-35.8,6.9c-11,4.5-20.8,10.8-29.3,19s-15.2,17.8-19.9,28.4c-4.9,11.2-7.5,23.2-7.5,35.6
				s2.5,24.4,7.5,35.6c1.3,3,2.8,6,4.5,8.9c-5.1-6.4-9.4-13.5-12.7-21c-5.1-11.7-7.7-24-7.7-36.7s2.6-25,7.7-36.7
				c5-11.4,12.3-21.7,21.5-30.6c9.3-8.9,20.1-15.9,32.2-20.8c12.5-5.1,25.8-7.7,39.5-7.7s27,2.6,39.5,7.7
				c12.1,4.9,22.9,11.9,32.2,20.8C-1583.9-25.5-1576.6-15.2-1571.6-3.8z"/>
			<path d="M-1584.5,14.7c4.4,10,6.6,20.6,6.6,31.4s-2.2,21.4-6.6,31.4c-3.5,8-8.3,15.3-14.2,21.9c1.6-2.6,3-5.3,4.2-8.1
				c4.1-9.3,6.2-19.3,6.2-29.6s-2.1-20.3-6.2-29.6c-3.9-8.8-9.4-16.8-16.5-23.5c-7-6.7-15.1-12-24.2-15.7
				c-9.4-3.8-19.3-5.7-29.5-5.7s-20.2,1.9-29.5,5.7c-9.1,3.7-17.2,9-24.2,15.7c-7.1,6.8-12.6,14.7-16.5,23.5
				c-4.1,9.3-6.2,19.3-6.2,29.6s2.1,20.3,6.2,29.6c1.2,2.8,2.6,5.5,4.2,8.1c-5.9-6.6-10.7-13.9-14.2-21.9c-4.4-10-6.6-20.6-6.6-31.4
				s2.2-21.4,6.6-31.4c4.3-9.8,10.6-18.7,18.5-26.3c8-7.7,17.3-13.7,27.7-17.9c10.8-4.4,22.2-6.6,34.1-6.6c11.8,0,23.3,2.2,34.1,6.6
				c10.4,4.2,19.7,10.3,27.7,17.9C-1595.1-4-1588.9,4.9-1584.5,14.7z"/>
			<path d="M-1599.3,36.3c3.6,8.1,5.4,16.7,5.4,25.5s-1.8,17.3-5.4,25.4c-2.5,5.7-5.8,11-9.8,15.8c0.8-1.4,1.5-2.8,2.1-4.3
				c3.4-7.7,5.1-16,5.1-24.6s-1.7-16.8-5.1-24.6c-3.2-7.3-7.8-13.8-13.6-19.4c-5.8-5.5-12.5-9.9-19.9-12.9
				c-7.7-3.1-15.9-4.7-24.3-4.7s-16.6,1.6-24.3,4.7c-7.4,3-14.1,7.4-19.9,12.9c-5.8,5.6-10.4,12.1-13.6,19.4
				c-3.4,7.7-5.1,16-5.1,24.6s1.7,16.8,5.1,24.6c0.6,1.5,1.3,2.9,2.1,4.3c-4-4.8-7.3-10.1-9.8-15.8c-3.6-8.1-5.4-16.7-5.4-25.4
				s1.8-17.3,5.4-25.5c3.5-8,8.6-15.2,15.1-21.4c6.5-6.3,14.1-11.2,22.6-14.6c8.8-3.6,18.2-5.4,27.8-5.4c9.6,0,19,1.8,27.8,5.4
				c8.5,3.4,16.1,8.4,22.6,14.6C-1607.9,21.1-1602.8,28.3-1599.3,36.3z"/>
			<path d="M-1611.8,53.8c2.9,6.5,4.3,13.4,4.3,20.4s-1.5,13.9-4.3,20.4c-2,4.5-4.6,8.7-7.8,12.6c0.3-0.5,0.5-1.1,0.7-1.6
				c2.7-6.2,4.1-12.7,4.1-19.5s-1.4-13.4-4.1-19.5c-2.6-5.8-6.2-11-10.8-15.4c-4.6-4.4-9.9-7.9-15.8-10.3
				c-6.1-2.5-12.6-3.7-19.3-3.7c-6.7,0-13.2,1.3-19.3,3.7c-5.9,2.4-11.3,5.9-15.8,10.3c-4.6,4.4-8.3,9.6-10.8,15.4
				c-2.7,6.2-4.1,12.7-4.1,19.5s1.4,13.4,4.1,19.5c0.2,0.5,0.5,1.1,0.7,1.6c-3.2-3.8-5.8-8.1-7.8-12.6c-2.9-6.5-4.3-13.4-4.3-20.4
				s1.5-13.9,4.3-20.4s6.9-12.3,12.2-17.3c5.3-5.1,11.4-9.1,18.3-11.9c7.1-2.9,14.7-4.4,22.5-4.4s15.4,1.5,22.5,4.4
				c6.9,2.8,13,6.8,18.3,11.9C-1618.7,41.5-1614.7,47.3-1611.8,53.8z"/>
			<path d="M-1623.3,70c2.2,5.1,3.4,10.5,3.4,16s-1.1,10.9-3.4,16c-1.3,3-3,5.9-5,8.5c1.6-4.3,2.5-8.8,2.5-13.5
				c0-5.3-1.1-10.4-3.2-15.2c-2-4.5-4.8-8.6-8.4-12s-7.7-6.1-12.3-8c-4.8-1.9-9.8-2.9-15-2.9s-10.3,1-15,2.9
				c-4.6,1.9-8.8,4.6-12.3,8c-3.6,3.5-6.4,7.5-8.4,12c-2.1,4.8-3.2,9.9-3.2,15.2c0,4.7,0.8,9.2,2.5,13.5c-2-2.6-3.7-5.5-5-8.5
				c-2.2-5.1-3.4-10.5-3.4-16s1.1-10.9,3.4-16c2.2-5.1,5.4-9.6,9.5-13.5c4.1-4,9-7.1,14.4-9.3c5.6-2.3,11.5-3.4,17.7-3.4
				s12.1,1.2,17.7,3.4c5.4,2.2,10.2,5.3,14.4,9.3C-1628.7,60.4-1625.5,65-1623.3,70z"/>
			<path d="M-1633.2,84.9c1.7,3.9,2.6,8,2.6,12.1s-0.9,8.3-2.6,12.1c-0.7,1.7-1.6,3.3-2.6,4.8c0.7-2.5,1-5.1,1-7.8
				c0-4.1-0.8-8-2.5-11.7c-1.5-3.5-3.7-6.6-6.5-9.3c-2.8-2.6-5.9-4.7-9.5-6.2c-3.7-1.5-7.6-2.2-11.6-2.2s-7.9,0.8-11.6,2.2
				c-3.6,1.4-6.8,3.5-9.5,6.2c-2.8,2.7-5,5.8-6.5,9.3c-1.6,3.7-2.5,7.6-2.5,11.7c0,2.7,0.4,5.3,1,7.8c-1-1.5-1.9-3.1-2.6-4.8
				c-1.7-3.9-2.6-8-2.6-12.1s0.9-8.3,2.6-12.1c1.7-3.8,4.1-7.3,7.3-10.3c3.2-3,6.8-5.4,10.9-7.1c4.3-1.7,8.8-2.6,13.5-2.6
				s9.2,0.9,13.5,2.6c4.1,1.7,7.8,4,10.9,7.1C-1637.3,77.5-1634.9,81-1633.2,84.9z"/>
		</g>
	</g>
	<path class="st0" d="M-780.2,43.4h-427c-11.2,0-20.2-9.1-20.2-20.2v-149c0-11.2,9.1-20.2,20.2-20.2h427c11.2,0,20.2,9.1,20.2,20.2
		v149C-760,34.3-769,43.4-780.2,43.4z"/>
	<g>
		<text transform="matrix(1 0 0 1 -1220.2485 -46.2612)" class="st2 st3" style="font-size:115px; letter-spacing:-1;">ARKEON</text>
		
			<text transform="matrix(1 0 0 1 -1223.7261 27.5171)" class="st2" style="font-family:'JosefinSans-Light'; font-size:44px; letter-spacing:2;">Live Green. Save Green</text>
		<g>
			<rect x="-1218.2" y="-33.5" class="st2" width="445.5" height="3"/>
		</g>
		<g>
			<rect x="-1214" y="-24.2" class="st2" width="10" height="1.5"/>
			<rect x="-1217.5" y="-24.2" class="st2" width="2" height="1.5"/>
			<rect x="-1202.5" y="-24.2" class="st2" width="2" height="1.5"/>
			<rect x="-1195.4" y="-24.2" class="st2" width="10" height="1.5"/>
			<rect x="-1198.9" y="-24.2" class="st2" width="2" height="1.5"/>
			<rect x="-1183.9" y="-24.2" class="st2" width="2" height="1.5"/>
			<rect x="-1176.8" y="-24.2" class="st2" width="10" height="1.5"/>
			<rect x="-1180.4" y="-24.2" class="st2" width="2" height="1.5"/>
			<rect x="-1165.4" y="-24.2" class="st2" width="2" height="1.5"/>
			<rect x="-1158.3" y="-24.2" class="st2" width="10" height="1.5"/>
			<rect x="-1161.8" y="-24.2" class="st2" width="2" height="1.5"/>
			<rect x="-1146.8" y="-24.2" class="st2" width="2" height="1.5"/>
			<rect x="-1139.7" y="-24.2" class="st2" width="10" height="1.5"/>
			<rect x="-1143.2" y="-24.2" class="st2" width="2" height="1.5"/>
			<rect x="-1128.2" y="-24.2" class="st2" width="2" height="1.5"/>
			<rect x="-1121.2" y="-24.2" class="st2" width="10" height="1.5"/>
			<rect x="-1124.7" y="-24.2" class="st2" width="2" height="1.5"/>
			<rect x="-1109.7" y="-24.2" class="st2" width="2" height="1.5"/>
			<rect x="-1102.6" y="-24.2" class="st2" width="10" height="1.5"/>
			<rect x="-1106.1" y="-24.2" class="st2" width="2" height="1.5"/>
			<rect x="-1091.1" y="-24.2" class="st2" width="2" height="1.5"/>
			<rect x="-1084" y="-24.2" class="st2" width="10" height="1.5"/>
			<rect x="-1087.5" y="-24.2" class="st2" width="2" height="1.5"/>
			<rect x="-1072.5" y="-24.2" class="st2" width="2" height="1.5"/>
			<rect x="-1065.5" y="-24.2" class="st2" width="10" height="1.5"/>
			<rect x="-1069" y="-24.2" class="st2" width="2" height="1.5"/>
			<rect x="-1054" y="-24.2" class="st2" width="2" height="1.5"/>
			<rect x="-1046.9" y="-24.2" class="st2" width="10" height="1.5"/>
			<rect x="-1050.4" y="-24.2" class="st2" width="2" height="1.5"/>
			<rect x="-1035.4" y="-24.2" class="st2" width="2" height="1.5"/>
			<rect x="-1028.3" y="-24.2" class="st2" width="10" height="1.5"/>
			<rect x="-1031.9" y="-24.2" class="st2" width="2" height="1.5"/>
			<rect x="-1016.9" y="-24.2" class="st2" width="2" height="1.5"/>
			<rect x="-1009.8" y="-24.2" class="st2" width="10" height="1.5"/>
			<rect x="-1013.3" y="-24.2" class="st2" width="2" height="1.5"/>
			<rect x="-998.3" y="-24.2" class="st2" width="2" height="1.5"/>
			<rect x="-991.2" y="-24.2" class="st2" width="10" height="1.5"/>
			<rect x="-994.7" y="-24.2" class="st2" width="2" height="1.5"/>
			<rect x="-979.7" y="-24.2" class="st2" width="2" height="1.5"/>
			<rect x="-972.7" y="-24.2" class="st2" width="10" height="1.5"/>
			<rect x="-976.2" y="-24.2" class="st2" width="2" height="1.5"/>
			<rect x="-961.2" y="-24.2" class="st2" width="2" height="1.5"/>
			<rect x="-954.1" y="-24.2" class="st2" width="10" height="1.5"/>
			<rect x="-957.6" y="-24.2" class="st2" width="2" height="1.5"/>
			<rect x="-942.6" y="-24.2" class="st2" width="2" height="1.5"/>
			<rect x="-935.5" y="-24.2" class="st2" width="10" height="1.5"/>
			<rect x="-939" y="-24.2" class="st2" width="2" height="1.5"/>
			<rect x="-924" y="-24.2" class="st2" width="2" height="1.5"/>
			<rect x="-917" y="-24.2" class="st2" width="10" height="1.5"/>
			<rect x="-920.5" y="-24.2" class="st2" width="2" height="1.5"/>
			<rect x="-905.5" y="-24.2" class="st2" width="2" height="1.5"/>
			<rect x="-898.4" y="-24.2" class="st2" width="10" height="1.5"/>
			<rect x="-901.9" y="-24.2" class="st2" width="2" height="1.5"/>
			<rect x="-886.9" y="-24.2" class="st2" width="2" height="1.5"/>
			<rect x="-879.8" y="-24.2" class="st2" width="10" height="1.5"/>
			<rect x="-883.4" y="-24.2" class="st2" width="2" height="1.5"/>
			<rect x="-868.4" y="-24.2" class="st2" width="2" height="1.5"/>
			<rect x="-861.3" y="-24.2" class="st2" width="10" height="1.5"/>
			<rect x="-864.8" y="-24.2" class="st2" width="2" height="1.5"/>
			<rect x="-849.8" y="-24.2" class="st2" width="2" height="1.5"/>
			<rect x="-842.7" y="-24.2" class="st2" width="10" height="1.5"/>
			<rect x="-846.2" y="-24.2" class="st2" width="2" height="1.5"/>
			<rect x="-831.2" y="-24.2" class="st2" width="2" height="1.5"/>
			<rect x="-824.2" y="-24.2" class="st2" width="10" height="1.5"/>
			<rect x="-827.7" y="-24.2" class="st2" width="2" height="1.5"/>
			<rect x="-812.7" y="-24.2" class="st2" width="2" height="1.5"/>
			<rect x="-805.6" y="-24.2" class="st2" width="10" height="1.5"/>
			<rect x="-809.1" y="-24.2" class="st2" width="2" height="1.5"/>
			<rect x="-794.1" y="-24.2" class="st2" width="2" height="1.5"/>
			<rect x="-787" y="-24.2" class="st2" width="10" height="1.5"/>
			<rect x="-790.5" y="-24.2" class="st2" width="2" height="1.5"/>
			<rect x="-775.5" y="-24.2" class="st2" width="2" height="1.5"/>
		</g>
		<g>
			<rect x="-1218.2" y="-16.5" class="st2" width="445.5" height="3"/>
		</g>
	</g>
	<g>
		<text transform="matrix(1 0 0 1 -1220.2485 195.0723)" class="st0 st3" style="font-size:115px; letter-spacing:-1;">ARKEON</text>
		
			<text transform="matrix(1 0 0 1 -1223.7261 268.8506)" class="st0" style="font-family:'JosefinSans-Light'; font-size:44px; letter-spacing:2;">Live Green. Save Green</text>
		<g>
			<g>
				<rect x="-1218.2" y="207.9" class="st0" width="445.5" height="3"/>
			</g>
		</g>
		<g>
			<g>
				<rect x="-1214" y="217.1" class="st0" width="10" height="1.5"/>
				<rect x="-1217.5" y="217.1" class="st0" width="2" height="1.5"/>
				<rect x="-1202.5" y="217.1" class="st0" width="2" height="1.5"/>
				<rect x="-1195.4" y="217.1" class="st0" width="10" height="1.5"/>
				<rect x="-1198.9" y="217.1" class="st0" width="2" height="1.5"/>
				<rect x="-1183.9" y="217.1" class="st0" width="2" height="1.5"/>
				<rect x="-1176.8" y="217.1" class="st0" width="10" height="1.5"/>
				<rect x="-1180.4" y="217.1" class="st0" width="2" height="1.5"/>
				<rect x="-1165.4" y="217.1" class="st0" width="2" height="1.5"/>
				<rect x="-1158.3" y="217.1" class="st0" width="10" height="1.5"/>
				<rect x="-1161.8" y="217.1" class="st0" width="2" height="1.5"/>
				<rect x="-1146.8" y="217.1" class="st0" width="2" height="1.5"/>
				<rect x="-1139.7" y="217.1" class="st0" width="10" height="1.5"/>
				<rect x="-1143.2" y="217.1" class="st0" width="2" height="1.5"/>
				<rect x="-1128.2" y="217.1" class="st0" width="2" height="1.5"/>
				<rect x="-1121.2" y="217.1" class="st0" width="10" height="1.5"/>
				<rect x="-1124.7" y="217.1" class="st0" width="2" height="1.5"/>
				<rect x="-1109.7" y="217.1" class="st0" width="2" height="1.5"/>
				<rect x="-1102.6" y="217.1" class="st0" width="10" height="1.5"/>
				<rect x="-1106.1" y="217.1" class="st0" width="2" height="1.5"/>
				<rect x="-1091.1" y="217.1" class="st0" width="2" height="1.5"/>
				<rect x="-1084" y="217.1" class="st0" width="10" height="1.5"/>
				<rect x="-1087.5" y="217.1" class="st0" width="2" height="1.5"/>
				<rect x="-1072.5" y="217.1" class="st0" width="2" height="1.5"/>
				<rect x="-1065.5" y="217.1" class="st0" width="10" height="1.5"/>
				<rect x="-1069" y="217.1" class="st0" width="2" height="1.5"/>
				<rect x="-1054" y="217.1" class="st0" width="2" height="1.5"/>
				<rect x="-1046.9" y="217.1" class="st0" width="10" height="1.5"/>
				<rect x="-1050.4" y="217.1" class="st0" width="2" height="1.5"/>
				<rect x="-1035.4" y="217.1" class="st0" width="2" height="1.5"/>
				<rect x="-1028.3" y="217.1" class="st0" width="10" height="1.5"/>
				<rect x="-1031.9" y="217.1" class="st0" width="2" height="1.5"/>
				<rect x="-1016.9" y="217.1" class="st0" width="2" height="1.5"/>
				<rect x="-1009.8" y="217.1" class="st0" width="10" height="1.5"/>
				<rect x="-1013.3" y="217.1" class="st0" width="2" height="1.5"/>
				<rect x="-998.3" y="217.1" class="st0" width="2" height="1.5"/>
				<rect x="-991.2" y="217.1" class="st0" width="10" height="1.5"/>
				<rect x="-994.7" y="217.1" class="st0" width="2" height="1.5"/>
				<rect x="-979.7" y="217.1" class="st0" width="2" height="1.5"/>
				<rect x="-972.7" y="217.1" class="st0" width="10" height="1.5"/>
				<rect x="-976.2" y="217.1" class="st0" width="2" height="1.5"/>
				<rect x="-961.2" y="217.1" class="st0" width="2" height="1.5"/>
				<rect x="-954.1" y="217.1" class="st0" width="10" height="1.5"/>
				<rect x="-957.6" y="217.1" class="st0" width="2" height="1.5"/>
				<rect x="-942.6" y="217.1" class="st0" width="2" height="1.5"/>
				<rect x="-935.5" y="217.1" class="st0" width="10" height="1.5"/>
				<rect x="-939" y="217.1" class="st0" width="2" height="1.5"/>
				<rect x="-924" y="217.1" class="st0" width="2" height="1.5"/>
				<rect x="-917" y="217.1" class="st0" width="10" height="1.5"/>
				<rect x="-920.5" y="217.1" class="st0" width="2" height="1.5"/>
				<rect x="-905.5" y="217.1" class="st0" width="2" height="1.5"/>
				<rect x="-898.4" y="217.1" class="st0" width="10" height="1.5"/>
				<rect x="-901.9" y="217.1" class="st0" width="2" height="1.5"/>
				<rect x="-886.9" y="217.1" class="st0" width="2" height="1.5"/>
				<rect x="-879.8" y="217.1" class="st0" width="10" height="1.5"/>
				<rect x="-883.4" y="217.1" class="st0" width="2" height="1.5"/>
				<rect x="-868.4" y="217.1" class="st0" width="2" height="1.5"/>
				<rect x="-861.3" y="217.1" class="st0" width="10" height="1.5"/>
				<rect x="-864.8" y="217.1" class="st0" width="2" height="1.5"/>
				<rect x="-849.8" y="217.1" class="st0" width="2" height="1.5"/>
				<rect x="-842.7" y="217.1" class="st0" width="10" height="1.5"/>
				<rect x="-846.2" y="217.1" class="st0" width="2" height="1.5"/>
				<rect x="-831.2" y="217.1" class="st0" width="2" height="1.5"/>
				<rect x="-824.2" y="217.1" class="st0" width="10" height="1.5"/>
				<rect x="-827.7" y="217.1" class="st0" width="2" height="1.5"/>
				<rect x="-812.7" y="217.1" class="st0" width="2" height="1.5"/>
				<rect x="-805.6" y="217.1" class="st0" width="10" height="1.5"/>
				<rect x="-809.1" y="217.1" class="st0" width="2" height="1.5"/>
				<rect x="-794.1" y="217.1" class="st0" width="2" height="1.5"/>
				<rect x="-787" y="217.1" class="st0" width="10" height="1.5"/>
				<rect x="-790.5" y="217.1" class="st0" width="2" height="1.5"/>
				<rect x="-775.5" y="217.1" class="st0" width="2" height="1.5"/>
			</g>
		</g>
		<g>
			<g>
				<rect x="-1218.2" y="224.9" class="st0" width="445.5" height="3"/>
			</g>
		</g>
	</g>
</g>
<text transform="matrix(1 0 0 1 20.2109 217.8213)" class="st2 st3 st4">Arkeon Energy</text>
<g>
	<path class="st5" d="M182.8,118.9c-3.8,10.8-10.3,20.6-18.6,28.3c-1.2,1.1-1.3,2.9-0.2,4.1l6.7,7.8c1.1,1.3,3,1.4,4.3,0.3
		c10.4-9.6,18.5-21.8,23.2-35.1s6.2-27.8,4.2-41.8c-0.2-1.7-1.8-2.8-3.5-2.5l-10.2,1.8c-1.6,0.3-2.6,1.8-2.4,3.4
		C187.8,96.5,186.6,108.2,182.8,118.9z"/>
	<path class="st5" d="M155.1,109.1l-0.5,1.3c-0.2,0.4-0.4,0.8-0.5,1.3c-0.3,0.9-0.8,1.7-1.1,2.5c-0.9,1.6-1.7,3.2-2.8,4.7
		c-1.5,2.3-3.3,4.3-5.2,6.2c-1.1,1.1-1.2,2.9-0.2,4.1l6.7,7.9c1.1,1.3,3.1,1.4,4.3,0.2c6.5-6.3,11.6-14,14.6-22.6
		c3-8.5,4.1-17.8,3-26.8c-0.2-1.7-1.8-2.9-3.5-2.6L159.8,87c-1.5,0.3-2.6,1.7-2.4,3.2C158.1,96.6,157.3,103.1,155.1,109.1z"/>
	<path class="st6" d="M159,38.4c0.6,0.5,1.2,0.9,1.8,1.4l1.8,1.5l1.7,1.6l0.9,0.8l0.8,0.8l1.6,1.7l1.5,1.7c1,1.1,2,2.4,2.9,3.6
		c3.2,4.1,5.9,8.6,8.1,13.4c0.7,1.4,2.4,2.1,3.8,1.5l9.5-4c1.6-0.7,2.3-2.5,1.6-4c-2.8-6-6.2-11.6-10.1-16.8c-1.2-1.5-2.3-3-3.6-4.4
		c-0.6-0.7-1.3-1.4-1.9-2.1l-2-2l-1-1l-1-1l-2.1-1.9l-2.2-1.8c-0.7-0.6-1.5-1.2-2.2-1.8c-11.2-8.7-24.6-14.5-38.5-16.9
		c-1.7-0.3-3.2,0.9-3.5,2.5l-1.4,10.2c-0.2,1.6,0.9,3,2.4,3.3C139.2,26.7,150,31.4,159,38.4z"/>
	<path class="st6" d="M161.8,59.4c-0.8-1-1.5-2-2.4-2.9l-1.3-1.4l-1.3-1.4l-0.6-0.6l-0.1-0.1l-0.6-0.6l-1.4-1.3l-1.5-1.2
		c-0.5-0.4-1-0.8-1.5-1.2c-7.1-5.6-15.7-9.3-24.5-11c-1.7-0.3-3.3,0.8-3.6,2.5l-1.4,10.2c-0.2,1.5,0.8,3,2.3,3.3
		c6.3,1.3,12.3,4,17.3,7.9c0.4,0.3,0.7,0.6,1.1,0.8l1,0.8l0.1,0.1l0.9,0.9l0.4,0.4l0.1,0.1l0.4,0.4l0.9,0.9l0.1,0.1l0.8,1
		c0.6,0.7,1.2,1.4,1.7,2.1c1.7,2.2,3.1,4.5,4.4,7c0.7,1.4,2.4,2,3.8,1.4l9.5-4c1.6-0.7,2.3-2.5,1.5-4
		C166.3,66,164.2,62.6,161.8,59.4z"/>
	<path class="st7" d="M49,37.8c-4.3,5-8,10.5-11.1,16.3c-0.8,1.5-0.2,3.3,1.3,4.1l9.3,4.5c1.4,0.7,3.2,0.1,3.9-1.3
		c2.5-4.6,5.4-8.9,8.8-12.9c4-4.7,8.7-8.8,13.8-12.3s10.6-6.3,16.5-8.4c4.9-1.7,10-3,15.2-3.6c1.6-0.2,2.8-1.6,2.6-3.2l-0.8-10.3
		c-0.1-1.7-1.6-2.9-3.3-2.7c-6.5,0.7-13,2.3-19.2,4.5c-7.2,2.6-14,6.1-20.2,10.3C59.7,26.9,53.9,32,49,37.8z"/>
	<path class="st7" d="M95.9,39.9c-4.8,1.7-9.3,4-13.5,6.9s-8,6.2-11.3,10.1c-2.6,3-4.9,6.3-6.8,9.8c-0.8,1.5-0.3,3.4,1.3,4.1
		l9.3,4.5c1.4,0.7,3.1,0.2,3.9-1.2c3.1-5.5,7.5-10.3,12.8-14c3.1-2.1,6.3-3.7,9.7-5c2.6-0.9,5.2-1.6,7.9-2c1.5-0.2,2.6-1.6,2.5-3.2
		l-0.8-10.3c-0.1-1.7-1.7-2.9-3.4-2.7C103.6,37.6,99.7,38.6,95.9,39.9z"/>
	<path class="st8" d="M54.4,132.1c-3.2-5.3-5.8-11-7.5-16.9c-3.3-11-3.7-22.7-1.6-33.9c0.3-1.6-0.7-3.1-2.2-3.5L33,75.5
		c-1.6-0.4-3.3,0.7-3.6,2.3c-2.8,13.9-2.2,28.4,1.9,42c2.1,7.3,5.3,14.3,9.2,20.8c3.4,5.6,7.4,10.8,12,15.5c1.2,1.2,3.1,1.2,4.3,0
		l7.2-7.4c1.1-1.2,1.1-3,0-4.1C60.3,140.7,57.1,136.5,54.4,132.1z"/>
	<path class="st8" d="M79.4,116.9c-1.9-3.2-3.4-6.5-4.4-10c-1.8-6.1-2.2-12.6-1.1-18.9c0.3-1.5-0.8-3-2.3-3.4l-10.1-2.4
		c-1.7-0.4-3.3,0.7-3.6,2.4c-1.6,8.9-1.1,18.2,1.4,26.9c1.4,4.9,3.5,9.5,6.1,13.8c2.1,3.4,4.6,6.7,7.3,9.6c1.2,1.2,3.1,1.2,4.3,0
		l7.2-7.5c1.1-1.1,1.1-2.9,0.1-4C82.5,121.4,80.9,119.2,79.4,116.9z"/>
	<path class="st9" d="M113.5,166.4h-1.2l-1.2-0.1l-2.3-0.2c-1.5-0.2-3.1-0.3-4.6-0.6c-3.1-0.4-6.1-1.2-9-2c-5-1.5-9.9-3.5-14.4-6
		c-1.4-0.8-3.2-0.3-4,1l-5.4,8.8c-0.9,1.4-0.4,3.3,1.1,4.1c5.7,3.2,11.8,5.8,18.1,7.6c3.6,1,7.3,1.9,11.1,2.5
		c1.9,0.3,3.8,0.5,5.6,0.7l2.8,0.2l1.4,0.1h1.4c14.1,0.5,28.4-2.7,41.1-8.9c1.5-0.7,2.1-2.6,1.3-4.1l-4.9-9.1
		c-0.8-1.4-2.5-2-3.9-1.3C136.4,164.2,124.9,166.8,113.5,166.4z"/>
	<path class="st9" d="M106.3,152.7c1.2,0.2,2.5,0.3,3.8,0.5l1.9,0.1l0.9,0.1h0.9c9.1,0.3,18.2-1.6,26.4-5.5c1.5-0.7,2.1-2.6,1.3-4.1
		l-4.9-9.1c-0.7-1.4-2.4-1.9-3.8-1.3l0,0l-1.2,0.5c-0.1,0-0.1,0-0.2,0.1l-1.2,0.5l-0.5,0.2c-0.1,0-0.1,0-0.2,0.1l-0.6,0.2l-1.2,0.4
		c-0.1,0-0.1,0-0.2,0l-1.2,0.3l-0.6,0.2c-0.1,0-0.1,0-0.2,0l-0.6,0.1l-1.2,0.3c-0.1,0-0.1,0-0.2,0l-1.3,0.2l-0.6,0.1
		c-0.1,0-0.1,0-0.2,0l-0.6,0.1l-1.3,0.2c-0.1,0-0.1,0-0.2,0L118,137h-0.6c-0.1,0-0.1,0-0.2,0h-0.6h-1.3c-0.1,0-0.1,0-0.2,0h-1.3
		h-0.6c-0.1,0-0.1,0-0.2,0h-0.6l-1.3-0.1c-0.1,0-0.1,0-0.2,0c-0.9-0.1-1.8-0.2-2.6-0.3c-1.8-0.3-3.6-0.7-5.4-1.2
		c-2.6-0.8-5.2-1.8-7.6-3.1c-1.4-0.7-3.1-0.2-3.9,1.1l-5.4,8.8c-0.9,1.5-0.4,3.4,1.2,4.2c3.5,1.9,7.3,3.4,11.1,4.5
		C101.3,151.7,103.8,152.3,106.3,152.7z"/>
	
		<ellipse transform="matrix(0.4327 -0.9015 0.9015 0.4327 -19.991 157.3164)" class="st10" cx="115" cy="94.5" rx="25.1" ry="25.1"/>
</g>
<g>
	<text transform="matrix(1 0 0 1 469.6641 167.9375)" style="font-family:'JosefinSans-Bold'; font-size:20.2654px;">Arkeon Energy</text>
	<g>
		<path class="st5" d="M579.1,107.2c-2.3,6.6-6.3,12.6-11.4,17.4c-0.7,0.7-0.8,1.8-0.1,2.5l4.1,4.8c0.7,0.8,1.9,0.9,2.6,0.2
			c6.4-5.9,11.4-13.4,14.3-21.6c2.9-8.2,3.8-17.1,2.6-25.7c-0.1-1-1.1-1.7-2.1-1.5l-6.2,1.1c-1,0.2-1.6,1.1-1.5,2.1
			C582.2,93.5,581.4,100.6,579.1,107.2z"/>
		<path class="st5" d="M562.2,101.2l-0.3,0.8c-0.1,0.3-0.2,0.5-0.3,0.8c-0.2,0.5-0.5,1-0.7,1.5c-0.5,1-1.1,2-1.7,2.9
			c-0.9,1.4-2,2.7-3.2,3.8c-0.7,0.7-0.7,1.8-0.1,2.5l4.1,4.8c0.7,0.8,1.9,0.8,2.7,0.1c4-3.8,7.1-8.6,9-13.9
			c1.9-5.2,2.5-10.9,1.8-16.4c-0.1-1-1.1-1.8-2.1-1.6l-6.2,1.1c-0.9,0.2-1.6,1-1.5,2C563.9,93.5,563.5,97.5,562.2,101.2z"/>
		<path class="st6" d="M564.5,57.7c0.4,0.3,0.8,0.6,1.1,0.9l1.1,0.9l1,1l0.5,0.5l0.5,0.5l1,1l0.9,1.1c0.6,0.7,1.2,1.5,1.8,2.2
			c2,2.5,3.6,5.3,5,8.2c0.4,0.9,1.5,1.3,2.4,0.9l5.9-2.5c1-0.4,1.4-1.5,1-2.5c-1.7-3.7-3.8-7.1-6.2-10.3c-0.7-0.9-1.4-1.8-2.2-2.7
			c-0.4-0.4-0.8-0.9-1.2-1.3l-1.2-1.3l-0.6-0.6l-0.6-0.6l-1.3-1.2l-1.3-1.1c-0.4-0.4-0.9-0.7-1.4-1.1c-6.9-5.3-15.1-8.9-23.6-10.4
			c-1-0.2-2,0.5-2.1,1.6l-0.9,6.3c-0.1,1,0.5,1.9,1.5,2C552.4,50.6,559,53.4,564.5,57.7z"/>
		<path class="st6" d="M566.2,70.6c-0.5-0.6-1-1.2-1.5-1.8L564,68l-0.8-0.8l-0.4-0.4c0,0,0,0-0.1-0.1l-0.4-0.4l-0.9-0.8l-0.9-0.7
			c-0.3-0.3-0.6-0.5-0.9-0.7c-4.4-3.4-9.6-5.7-15.1-6.8c-1-0.2-2,0.5-2.2,1.5l-0.9,6.3c-0.1,0.9,0.5,1.8,1.4,2
			c3.8,0.8,7.5,2.4,10.6,4.8c0.2,0.2,0.4,0.3,0.7,0.5l0.6,0.5c0,0,0.1,0,0.1,0.1l0.6,0.5l0.3,0.2l0.1,0.1l0.2,0.3l0.6,0.6
			c0,0,0,0,0.1,0.1l0.5,0.6c0.4,0.4,0.7,0.9,1.1,1.3c1,1.3,1.9,2.8,2.7,4.3c0.4,0.9,1.5,1.2,2.3,0.8l5.9-2.5c1-0.4,1.4-1.5,0.9-2.5
			C569,74.7,567.7,72.6,566.2,70.6z"/>
		<path class="st7" d="M496.9,57.4c-2.6,3.1-4.9,6.4-6.8,10c-0.5,0.9-0.1,2,0.8,2.5l5.7,2.8c0.9,0.4,2,0.1,2.4-0.8
			c1.5-2.8,3.3-5.5,5.4-7.9c2.5-2.9,5.4-5.4,8.5-7.6c3.1-2.1,6.5-3.9,10.1-5.2c3-1.1,6.2-1.8,9.3-2.2c1-0.1,1.7-1,1.6-2l-0.5-6.3
			c-0.1-1-1-1.8-2-1.7c-4,0.5-8,1.4-11.8,2.7c-4.4,1.6-8.6,3.7-12.4,6.3C503.5,50.7,500,53.8,496.9,57.4z"/>
		<path class="st7" d="M525.8,58.7c-2.9,1-5.7,2.5-8.3,4.2c-2.6,1.8-4.9,3.8-6.9,6.2c-1.6,1.9-3,3.9-4.2,6c-0.5,0.9-0.2,2.1,0.8,2.5
			l5.7,2.8c0.9,0.4,1.9,0.1,2.4-0.7c1.9-3.4,4.6-6.3,7.9-8.6c1.9-1.3,3.9-2.3,6-3.1c1.6-0.5,3.2-1,4.8-1.2c0.9-0.1,1.6-1,1.5-2
			l-0.5-6.3c-0.1-1.1-1-1.8-2.1-1.7C530.5,57.3,528.1,57.9,525.8,58.7z"/>
		<path class="st8" d="M500.3,115.3c-1.9-3.3-3.5-6.7-4.6-10.4c-2-6.7-2.3-13.9-1-20.8c0.2-1-0.4-1.9-1.4-2.1l-6.2-1.5
			c-1-0.2-2,0.4-2.2,1.4c-1.7,8.5-1.3,17.4,1.1,25.8c1.3,4.5,3.3,8.8,5.6,12.8c2.1,3.4,4.6,6.6,7.4,9.5c0.7,0.7,1.9,0.7,2.6,0
			l4.4-4.6c0.7-0.7,0.7-1.8,0-2.5C503.9,120.6,502,118,500.3,115.3z"/>
		<path class="st8" d="M515.7,105.9c-1.1-1.9-2.1-4-2.7-6.1c-1.1-3.7-1.3-7.8-0.7-11.6c0.2-0.9-0.5-1.8-1.4-2.1l-6.2-1.5
			c-1-0.2-2,0.4-2.2,1.5c-1,5.5-0.7,11.2,0.9,16.5c0.9,3,2.2,5.8,3.8,8.5c1.3,2.1,2.8,4.1,4.5,5.9c0.7,0.8,1.9,0.8,2.6,0l4.4-4.6
			c0.7-0.7,0.7-1.8,0.1-2.5C517.6,108.7,516.5,107.4,515.7,105.9z"/>
		<path class="st9" d="M536.6,136.4h-0.7h-0.7l-1.4-0.1c-0.9-0.1-1.9-0.2-2.8-0.4c-1.9-0.3-3.7-0.7-5.5-1.2
			c-3.1-0.9-6.1-2.1-8.9-3.7c-0.9-0.5-2-0.2-2.5,0.6l-3.3,5.4c-0.5,0.9-0.2,2,0.7,2.5c3.5,2,7.3,3.5,11.1,4.7
			c2.2,0.6,4.5,1.2,6.8,1.5c1.1,0.2,2.3,0.3,3.5,0.4l1.7,0.1l0.9,0.1h0.9c8.7,0.3,17.5-1.7,25.3-5.5c0.9-0.5,1.3-1.6,0.8-2.5l-3-5.6
			c-0.5-0.9-1.5-1.2-2.4-0.8C550.6,135,543.6,136.6,536.6,136.4z"/>
		<path class="st9" d="M532.2,127.9c0.8,0.1,1.5,0.2,2.3,0.3l1.2,0.1h0.6h0.6c5.6,0.2,11.2-1,16.2-3.4c0.9-0.4,1.3-1.6,0.8-2.5
			l-3-5.6c-0.4-0.8-1.4-1.2-2.3-0.8l0,0l-0.7,0.3h-0.1l-0.7,0.3l-0.3,0.1h-0.1l-0.3,0.1l-0.7,0.3h-0.1l-0.8,0.2l-0.3,0.1h-0.1
			l-0.4,0.1l-0.8,0.2h-0.1l-0.8,0.1l-0.4,0.1h-0.1h-0.4l-0.8,0.1h-0.1l-0.8,0.1h-0.4h-0.1h-0.4H538h-0.1h-0.8h-0.4h-0.1h-0.4
			l-0.8-0.1h-0.1c-0.5-0.1-1.1-0.1-1.6-0.2c-1.1-0.2-2.2-0.4-3.3-0.7c-1.6-0.5-3.2-1.1-4.7-1.9c-0.8-0.4-1.9-0.1-2.4,0.7l-3.3,5.4
			c-0.5,0.9-0.2,2.1,0.7,2.6c2.2,1.2,4.5,2.1,6.8,2.8C529.1,127.3,530.6,127.7,532.2,127.9z"/>
		
			<ellipse transform="matrix(0.4327 -0.9015 0.9015 0.4327 221.7499 536.9064)" class="st10" cx="537.5" cy="92.3" rx="15.4" ry="15.4"/>
	</g>
</g>
<g id="Layer_3">
	<rect x="-249" y="-164" class="st8" width="61.9" height="56.5"/>
	<rect x="-249" y="-86.8" class="st5" width="61.9" height="56.5"/>
	<rect x="-249" y="-9.5" class="st7" width="61.9" height="56.5"/>
	<rect x="-249" y="67.7" class="st9" width="61.9" height="56.5"/>
	<rect x="-249" y="144.9" class="st6" width="61.9" height="56.5"/>
	<rect x="-249" y="222.1" class="st11" width="61.9" height="56.5"/>
	<rect x="-249" y="299.3" class="st12" width="61.9" height="56.5"/>
</g>
</svg>
