<?xml version="1.0" encoding="utf-8"?>
<!-- Generator: Adobe Illustrator 21.0.0, SVG Export Plug-In . SVG Version: 6.00 Build 0)  -->
<svg version="1.1" xmlns="http://www.w3.org/2000/svg" xmlns:xlink="http://www.w3.org/1999/xlink" x="0px" y="0px"
	 viewBox="0 0 368.1 380.2" style="enable-background:new 0 0 368.1 380.2;" xml:space="preserve">
<style type="text/css">
	.st0{fill:#11993E;}
	.st1{fill:#FFFFFF;}
	.st2{font-family:'JosefinSans-Bold';}
	.st3{font-size:33px;}
	.st4{letter-spacing:1;}
	.st5{fill:#DEE256;}
	.st6{fill:#63DBD8;}
	.st7{fill:#51BC3F;}
	.st8{fill:#E09927;}
	.st9{fill:#D12020;}
	.st10{fill:#134699;}
	.st11{fill:#2C2A9E;}
	.st12{fill:#F9F6E8;}
</style>
<g id="Layer_1">
</g>
<g id="Layer_2">
	<g>
		<text transform="matrix(1 0 0 1 72.5325 296.5542)" class="st2 st3 st4">Arkeon Energy</text>
		<g>
			<path class="st5" d="M250.8,197.7c-3.8,10.8-10.3,20.6-18.6,28.3c-1.2,1.1-1.3,2.9-0.2,4.1l6.7,7.8c1.1,1.3,3,1.4,4.3,0.3
				c10.4-9.6,18.5-21.8,23.2-35.1c4.7-13.3,6.2-27.8,4.2-41.8c-0.2-1.7-1.8-2.8-3.5-2.5l-10.2,1.8c-1.6,0.3-2.6,1.8-2.4,3.4
				C255.8,175.3,254.6,186.9,250.8,197.7z"/>
			<path class="st5" d="M223.1,187.9l-0.5,1.3c-0.2,0.4-0.4,0.8-0.5,1.3c-0.3,0.9-0.8,1.7-1.1,2.5c-0.9,1.6-1.7,3.2-2.8,4.7
				c-1.5,2.3-3.3,4.3-5.2,6.2c-1.1,1.1-1.2,2.9-0.2,4.1l6.7,7.9c1.1,1.3,3.1,1.4,4.3,0.2c6.5-6.3,11.6-14,14.6-22.6
				c3-8.5,4.1-17.8,3-26.8c-0.2-1.7-1.8-2.9-3.5-2.6l-10.2,1.8c-1.5,0.3-2.6,1.7-2.4,3.2C226.1,175.3,225.3,181.8,223.1,187.9z"/>
			<path class="st6" d="M227,117.1c0.6,0.5,1.2,0.9,1.8,1.4l1.8,1.5l1.7,1.6l0.9,0.8l0.8,0.8l1.6,1.7l1.5,1.7c1,1.1,2,2.4,2.9,3.6
				c3.2,4.1,5.9,8.6,8.1,13.4c0.7,1.4,2.4,2.1,3.8,1.5l9.5-4c1.6-0.7,2.3-2.5,1.6-4c-2.8-6-6.2-11.6-10.1-16.8
				c-1.2-1.5-2.3-3-3.6-4.4c-0.6-0.7-1.3-1.4-1.9-2.1l-2-2l-1-1l-1-1l-2.1-1.9l-2.2-1.8c-0.7-0.6-1.5-1.2-2.2-1.8
				c-11.2-8.7-24.6-14.5-38.5-16.9c-1.7-0.3-3.2,0.9-3.5,2.5l-1.4,10.2c-0.2,1.6,0.9,3,2.4,3.3C207.2,105.4,218,110.1,227,117.1z"/>
			<path class="st6" d="M229.8,138.1c-0.8-1-1.5-2-2.4-2.9l-1.3-1.4l-1.3-1.4l-0.6-0.6c0,0-0.1-0.1-0.1-0.1l-0.6-0.6l-1.4-1.3
				l-1.5-1.2c-0.5-0.4-1-0.8-1.5-1.2c-7.1-5.6-15.7-9.3-24.5-11c-1.7-0.3-3.3,0.8-3.6,2.5l-1.4,10.2c-0.2,1.5,0.8,3,2.3,3.3
				c6.3,1.3,12.3,4,17.3,7.9c0.4,0.3,0.7,0.6,1.1,0.8l1,0.8c0,0,0.1,0.1,0.1,0.1l0.9,0.9l0.4,0.4c0,0,0.1,0.1,0.1,0.1l0.4,0.4
				l0.9,0.9c0,0,0.1,0.1,0.1,0.1l0.8,1c0.6,0.7,1.2,1.4,1.7,2.1c1.7,2.2,3.1,4.5,4.4,7c0.7,1.4,2.4,2,3.8,1.4l9.5-4
				c1.6-0.7,2.3-2.5,1.5-4C234.3,144.8,232.2,141.3,229.8,138.1z"/>
			<path class="st7" d="M117,116.5c-4.3,5-8,10.5-11.1,16.3c-0.8,1.5-0.2,3.3,1.3,4.1l9.3,4.5c1.4,0.7,3.2,0.1,3.9-1.3
				c2.5-4.6,5.4-8.9,8.8-12.9c4-4.7,8.7-8.8,13.8-12.3c5.1-3.5,10.6-6.3,16.5-8.4c4.9-1.7,10-3,15.2-3.6c1.6-0.2,2.8-1.6,2.6-3.2
				l-0.8-10.3c-0.1-1.7-1.6-2.9-3.3-2.7c-6.5,0.7-13,2.3-19.2,4.5c-7.2,2.6-14,6.1-20.2,10.3C127.7,105.6,121.9,110.7,117,116.5z"/>
			<path class="st7" d="M163.9,118.6c-4.8,1.7-9.3,4-13.5,6.9c-4.2,2.9-8,6.2-11.3,10.1c-2.6,3-4.9,6.3-6.8,9.8
				c-0.8,1.5-0.3,3.4,1.3,4.1l9.3,4.5c1.4,0.7,3.1,0.2,3.9-1.2c3.1-5.5,7.5-10.3,12.8-14c3.1-2.1,6.3-3.7,9.7-5
				c2.6-0.9,5.2-1.6,7.9-2c1.5-0.2,2.6-1.6,2.5-3.2l-0.8-10.3c-0.1-1.7-1.7-2.9-3.4-2.7C171.6,116.4,167.7,117.3,163.9,118.6z"/>
			<path class="st8" d="M122.4,210.8c-3.2-5.3-5.8-11-7.5-16.9c-3.3-11-3.7-22.7-1.6-33.9c0.3-1.6-0.7-3.1-2.2-3.5l-10.1-2.4
				c-1.6-0.4-3.3,0.7-3.6,2.3c-2.8,13.9-2.2,28.4,1.9,42c2.1,7.3,5.3,14.3,9.2,20.8c3.4,5.6,7.4,10.8,12,15.5c1.2,1.2,3.1,1.2,4.3,0
				l7.2-7.4c1.1-1.2,1.1-3,0-4.1C128.3,219.4,125.1,215.3,122.4,210.8z"/>
			<path class="st8" d="M147.4,195.6c-1.9-3.2-3.4-6.5-4.4-10c-1.8-6.1-2.2-12.6-1.1-18.9c0.3-1.5-0.8-3-2.3-3.4l-10.1-2.4
				c-1.7-0.4-3.3,0.7-3.6,2.4c-1.6,8.9-1.1,18.2,1.4,26.9c1.4,4.9,3.5,9.5,6.1,13.8c2.1,3.4,4.6,6.7,7.3,9.6c1.2,1.2,3.1,1.2,4.3,0
				l7.2-7.5c1.1-1.1,1.1-2.9,0.1-4C150.5,200.2,148.9,197.9,147.4,195.6z"/>
			<path class="st9" d="M181.5,245.1l-1.2,0l-1.2-0.1l-2.3-0.2c-1.5-0.2-3.1-0.3-4.6-0.6c-3.1-0.4-6.1-1.2-9-2
				c-5-1.5-9.9-3.5-14.4-6c-1.4-0.8-3.2-0.3-4,1l-5.4,8.8c-0.9,1.4-0.4,3.3,1.1,4.1c5.7,3.2,11.8,5.8,18.1,7.6
				c3.6,1,7.3,1.9,11.1,2.5c1.9,0.3,3.8,0.5,5.6,0.7l2.8,0.2l1.4,0.1l1.4,0c14.1,0.5,28.4-2.7,41.1-8.9c1.5-0.7,2.1-2.6,1.3-4.1
				l-4.9-9.1c-0.8-1.4-2.5-2-3.9-1.3C204.4,243,192.9,245.5,181.5,245.1z"/>
			<path class="st9" d="M174.3,231.4c1.2,0.2,2.5,0.3,3.8,0.5l1.9,0.1l0.9,0.1l0.9,0c9.1,0.3,18.2-1.6,26.4-5.5
				c1.5-0.7,2.1-2.6,1.3-4.1l-4.9-9.1c-0.7-1.4-2.4-1.9-3.8-1.3c0,0,0,0,0,0l-1.2,0.5c-0.1,0-0.1,0-0.2,0.1l-1.2,0.5l-0.5,0.2
				c-0.1,0-0.1,0-0.2,0.1l-0.6,0.2l-1.2,0.4c-0.1,0-0.1,0-0.2,0l-1.2,0.3l-0.6,0.2c-0.1,0-0.1,0-0.2,0l-0.6,0.1l-1.2,0.3
				c-0.1,0-0.1,0-0.2,0l-1.3,0.2l-0.6,0.1c-0.1,0-0.1,0-0.2,0l-0.6,0.1l-1.3,0.2c-0.1,0-0.1,0-0.2,0l-1.3,0.1l-0.6,0
				c-0.1,0-0.1,0-0.2,0l-0.6,0l-1.3,0c-0.1,0-0.1,0-0.2,0l-1.3,0l-0.6,0c-0.1,0-0.1,0-0.2,0l-0.6,0l-1.3-0.1c-0.1,0-0.1,0-0.2,0
				c-0.9-0.1-1.8-0.2-2.6-0.3c-1.8-0.3-3.6-0.7-5.4-1.2c-2.6-0.8-5.2-1.8-7.6-3.1c-1.4-0.7-3.1-0.2-3.9,1.1l-5.4,8.8
				c-0.9,1.5-0.4,3.4,1.2,4.2c3.5,1.9,7.3,3.4,11.1,4.5C169.3,230.4,171.8,231,174.3,231.4z"/>
			
				<ellipse transform="matrix(0.4327 -0.9015 0.9015 0.4327 -52.348 263.2953)" class="st10" cx="183" cy="173.2" rx="25.1" ry="25.1"/>
		</g>
	</g>
</g>
<g id="Layer_3">
</g>
</svg>
