<?xml version="1.0" encoding="utf-8"?>
<!-- Generator: Adobe Illustrator 21.1.0, SVG Export Plug-In . SVG Version: 6.00 Build 0)  -->
<svg version="1.1" xmlns="http://www.w3.org/2000/svg" xmlns:xlink="http://www.w3.org/1999/xlink" x="0px" y="0px"
	 viewBox="0 0 368.1 380.2" style="enable-background:new 0 0 368.1 380.2;" xml:space="preserve">
<style type="text/css">
	.st0{fill:#11993E;}
	.st1{fill:#FFFFFF;}
	.st2{font-family:'JosefinSans-Bold';}
	.st3{font-size:33px;}
	.st4{letter-spacing:1;}
	.st5{fill:#DEE256;}
	.st6{fill:#63DBD8;}
	.st7{fill:#51BC3F;}
	.st8{fill:#E09927;}
	.st9{fill:#D12020;}
	.st10{fill:#134699;}
	.st11{fill:#2C2A9E;}
	.st12{fill:#F9F6E8;}
</style>
<g id="Layer_1">
	<g id="XMLID_2_">
		<g>
			<path d="M-1503.6,75c5.1,11.7,7.7,24,7.7,36.7c0,12.7-2.6,25-7.7,36.7c-3.3,7.5-7.6,14.5-12.7,21c1.7-2.9,3.2-5.8,4.5-8.9
				c4.9-11.2,7.5-23.2,7.5-35.6s-2.5-24.4-7.5-35.6c-4.7-10.7-11.4-20.2-19.9-28.4c-8.5-8.1-18.3-14.5-29.3-19
				c-11.3-4.6-23.4-6.9-35.8-6.9c-12.4,0-24.4,2.3-35.8,6.9c-11,4.5-20.8,10.8-29.3,19c-8.5,8.2-15.2,17.8-19.9,28.4
				c-4.9,11.2-7.5,23.2-7.5,35.6s2.5,24.4,7.5,35.6c1.3,3,2.8,6,4.5,8.9c-5.1-6.4-9.4-13.5-12.7-21c-5.1-11.7-7.7-24-7.7-36.7
				c0-12.7,2.6-25,7.7-36.7c5-11.4,12.3-21.7,21.5-30.6c9.3-8.9,20.1-15.9,32.2-20.8c12.5-5.1,25.8-7.7,39.5-7.7
				c13.7,0,27,2.6,39.5,7.7c12.1,4.9,22.9,11.9,32.2,20.8C-1515.9,53.2-1508.6,63.5-1503.6,75z"/>
			<path d="M-1516.5,93.4c4.4,10,6.6,20.6,6.6,31.4s-2.2,21.4-6.6,31.4c-3.5,8-8.3,15.3-14.2,21.9c1.6-2.6,3-5.3,4.2-8.1
				c4.1-9.3,6.2-19.3,6.2-29.6c0-10.3-2.1-20.3-6.2-29.6c-3.9-8.8-9.4-16.8-16.5-23.5c-7-6.7-15.1-12-24.2-15.7
				c-9.4-3.8-19.3-5.7-29.5-5.7s-20.2,1.9-29.5,5.7c-9.1,3.7-17.2,9-24.2,15.7c-7.1,6.8-12.6,14.7-16.5,23.5
				c-4.1,9.3-6.2,19.3-6.2,29.6c0,10.3,2.1,20.3,6.2,29.6c1.2,2.8,2.6,5.5,4.2,8.1c-5.9-6.6-10.7-13.9-14.2-21.9
				c-4.4-10-6.6-20.6-6.6-31.4s2.2-21.4,6.6-31.4c4.3-9.8,10.6-18.7,18.5-26.3c8-7.7,17.3-13.7,27.7-17.9
				c10.8-4.4,22.2-6.6,34.1-6.6c11.8,0,23.3,2.2,34.1,6.6c10.4,4.2,19.7,10.3,27.7,17.9C-1527.1,74.7-1520.9,83.6-1516.5,93.4z"/>
			<path d="M-1531.3,115c3.6,8.1,5.4,16.7,5.4,25.5s-1.8,17.3-5.4,25.4c-2.5,5.7-5.8,11-9.8,15.8c0.8-1.4,1.5-2.8,2.1-4.3
				c3.4-7.7,5.1-16,5.1-24.6s-1.7-16.8-5.1-24.6c-3.2-7.3-7.8-13.8-13.6-19.4c-5.8-5.5-12.5-9.9-19.9-12.9
				c-7.7-3.1-15.9-4.7-24.3-4.7c-8.4,0-16.6,1.6-24.3,4.7c-7.4,3-14.1,7.4-19.9,12.9c-5.8,5.6-10.4,12.1-13.6,19.4
				c-3.4,7.7-5.1,16-5.1,24.6s1.7,16.8,5.1,24.6c0.6,1.5,1.3,2.9,2.1,4.3c-4-4.8-7.3-10.1-9.8-15.8c-3.6-8.1-5.4-16.7-5.4-25.4
				s1.8-17.3,5.4-25.5c3.5-8,8.6-15.2,15.1-21.4c6.5-6.3,14.1-11.2,22.6-14.6c8.8-3.6,18.2-5.4,27.8-5.4c9.6,0,19,1.8,27.8,5.4
				c8.5,3.4,16.1,8.4,22.6,14.6C-1539.9,99.8-1534.8,107-1531.3,115z"/>
			<path d="M-1543.8,132.5c2.9,6.5,4.3,13.4,4.3,20.4c0,7-1.5,13.9-4.3,20.4c-2,4.5-4.6,8.7-7.8,12.6c0.3-0.5,0.5-1.1,0.7-1.6
				c2.7-6.2,4.1-12.7,4.1-19.5s-1.4-13.4-4.1-19.5c-2.6-5.8-6.2-11-10.8-15.4c-4.6-4.4-9.9-7.9-15.8-10.3
				c-6.1-2.5-12.6-3.7-19.3-3.7c-6.7,0-13.2,1.3-19.3,3.7c-5.9,2.4-11.3,5.9-15.8,10.3c-4.6,4.4-8.3,9.6-10.8,15.4
				c-2.7,6.2-4.1,12.7-4.1,19.5s1.4,13.4,4.1,19.5c0.2,0.5,0.5,1.1,0.7,1.6c-3.2-3.8-5.8-8.1-7.8-12.6c-2.9-6.5-4.3-13.4-4.3-20.4
				c0-7,1.5-13.9,4.3-20.4c2.8-6.5,6.9-12.3,12.2-17.3c5.3-5.1,11.4-9.1,18.3-11.9c7.1-2.9,14.7-4.4,22.5-4.4
				c7.8,0,15.4,1.5,22.5,4.4c6.9,2.8,13,6.8,18.3,11.9C-1550.7,120.3-1546.7,126.1-1543.8,132.5z"/>
			<path d="M-1555.3,148.8c2.2,5.1,3.4,10.5,3.4,16c0,5.5-1.1,10.9-3.4,16c-1.3,3-3,5.9-5,8.5c1.6-4.3,2.5-8.8,2.5-13.5
				c0-5.3-1.1-10.4-3.2-15.2c-2-4.5-4.8-8.6-8.4-12c-3.6-3.4-7.7-6.1-12.3-8c-4.8-1.9-9.8-2.9-15-2.9c-5.2,0-10.3,1-15,2.9
				c-4.6,1.9-8.8,4.6-12.3,8c-3.6,3.5-6.4,7.5-8.4,12c-2.1,4.8-3.2,9.9-3.2,15.2c0,4.7,0.8,9.2,2.5,13.5c-2-2.6-3.7-5.5-5-8.5
				c-2.2-5.1-3.4-10.5-3.4-16c0-5.5,1.1-10.9,3.4-16c2.2-5.1,5.4-9.6,9.5-13.5c4.1-4,9-7.1,14.4-9.3c5.6-2.3,11.5-3.4,17.7-3.4
				s12.1,1.2,17.7,3.4c5.4,2.2,10.2,5.3,14.4,9.3C-1560.7,139.2-1557.5,143.7-1555.3,148.8z"/>
			<path d="M-1565.2,163.6c1.7,3.9,2.6,8,2.6,12.1c0,4.2-0.9,8.3-2.6,12.1c-0.7,1.7-1.6,3.3-2.6,4.8c0.7-2.5,1-5.1,1-7.8
				c0-4.1-0.8-8-2.5-11.7c-1.5-3.5-3.7-6.6-6.5-9.3c-2.8-2.6-5.9-4.7-9.5-6.2c-3.7-1.5-7.6-2.2-11.6-2.2c-4,0-7.9,0.8-11.6,2.2
				c-3.6,1.4-6.8,3.5-9.5,6.2c-2.8,2.7-5,5.8-6.5,9.3c-1.6,3.7-2.5,7.6-2.5,11.7c0,2.7,0.4,5.3,1,7.8c-1-1.5-1.9-3.1-2.6-4.8
				c-1.7-3.9-2.6-8-2.6-12.1c0-4.2,0.9-8.3,2.6-12.1c1.7-3.8,4.1-7.3,7.3-10.3c3.2-3,6.8-5.4,10.9-7.1c4.3-1.7,8.8-2.6,13.5-2.6
				c4.7,0,9.2,0.9,13.5,2.6c4.1,1.7,7.8,4,10.9,7.1C-1569.3,156.3-1566.9,159.7-1565.2,163.6z"/>
		</g>
		<g>
		</g>
	</g>
	<path class="st0" d="M-712.2,122.1h-427c-11.2,0-20.2-9.1-20.2-20.2v-149c0-11.2,9.1-20.2,20.2-20.2h427c11.2,0,20.2,9.1,20.2,20.2
		v149C-692,113.1-701,122.1-712.2,122.1z"/>
	<g>
		
			<text transform="matrix(1 0 0 1 -1152.2484 32.4716)" class="st1" style="font-family:'JosefinSans'; font-size:115px; letter-spacing:-2;">ARKEON</text>
		
			<text transform="matrix(1 0 0 1 -1155.726 106.2498)" class="st1" style="font-family:'JosefinSans-Light'; font-size:44px; letter-spacing:3;">Live Green. Save Green</text>
		<g>
			<rect x="-1150.2" y="45.3" class="st1" width="445.5" height="3"/>
		</g>
		<g>
			<rect x="-1146" y="54.5" class="st1" width="10" height="1.5"/>
			<rect x="-1149.5" y="54.5" class="st1" width="2" height="1.5"/>
			<rect x="-1134.5" y="54.5" class="st1" width="2" height="1.5"/>
			<rect x="-1127.4" y="54.5" class="st1" width="10" height="1.5"/>
			<rect x="-1130.9" y="54.5" class="st1" width="2" height="1.5"/>
			<rect x="-1115.9" y="54.5" class="st1" width="2" height="1.5"/>
			<rect x="-1108.8" y="54.5" class="st1" width="10" height="1.5"/>
			<rect x="-1112.4" y="54.5" class="st1" width="2" height="1.5"/>
			<rect x="-1097.4" y="54.5" class="st1" width="2" height="1.5"/>
			<rect x="-1090.3" y="54.5" class="st1" width="10" height="1.5"/>
			<rect x="-1093.8" y="54.5" class="st1" width="2" height="1.5"/>
			<rect x="-1078.8" y="54.5" class="st1" width="2" height="1.5"/>
			<rect x="-1071.7" y="54.5" class="st1" width="10" height="1.5"/>
			<rect x="-1075.2" y="54.5" class="st1" width="2" height="1.5"/>
			<rect x="-1060.2" y="54.5" class="st1" width="2" height="1.5"/>
			<rect x="-1053.2" y="54.5" class="st1" width="10" height="1.5"/>
			<rect x="-1056.7" y="54.5" class="st1" width="2" height="1.5"/>
			<rect x="-1041.7" y="54.5" class="st1" width="2" height="1.5"/>
			<rect x="-1034.6" y="54.5" class="st1" width="10" height="1.5"/>
			<rect x="-1038.1" y="54.5" class="st1" width="2" height="1.5"/>
			<rect x="-1023.1" y="54.5" class="st1" width="2" height="1.5"/>
			<rect x="-1016" y="54.5" class="st1" width="10" height="1.5"/>
			<rect x="-1019.5" y="54.5" class="st1" width="2" height="1.5"/>
			<rect x="-1004.5" y="54.5" class="st1" width="2" height="1.5"/>
			<rect x="-997.5" y="54.5" class="st1" width="10" height="1.5"/>
			<rect x="-1001" y="54.5" class="st1" width="2" height="1.5"/>
			<rect x="-986" y="54.5" class="st1" width="2" height="1.5"/>
			<rect x="-978.9" y="54.5" class="st1" width="10" height="1.5"/>
			<rect x="-982.4" y="54.5" class="st1" width="2" height="1.5"/>
			<rect x="-967.4" y="54.5" class="st1" width="2" height="1.5"/>
			<rect x="-960.3" y="54.5" class="st1" width="10" height="1.5"/>
			<rect x="-963.9" y="54.5" class="st1" width="2" height="1.5"/>
			<rect x="-948.9" y="54.5" class="st1" width="2" height="1.5"/>
			<rect x="-941.8" y="54.5" class="st1" width="10" height="1.5"/>
			<rect x="-945.3" y="54.5" class="st1" width="2" height="1.5"/>
			<rect x="-930.3" y="54.5" class="st1" width="2" height="1.5"/>
			<rect x="-923.2" y="54.5" class="st1" width="10" height="1.5"/>
			<rect x="-926.7" y="54.5" class="st1" width="2" height="1.5"/>
			<rect x="-911.7" y="54.5" class="st1" width="2" height="1.5"/>
			<rect x="-904.7" y="54.5" class="st1" width="10" height="1.5"/>
			<rect x="-908.2" y="54.5" class="st1" width="2" height="1.5"/>
			<rect x="-893.2" y="54.5" class="st1" width="2" height="1.5"/>
			<rect x="-886.1" y="54.5" class="st1" width="10" height="1.5"/>
			<rect x="-889.6" y="54.5" class="st1" width="2" height="1.5"/>
			<rect x="-874.6" y="54.5" class="st1" width="2" height="1.5"/>
			<rect x="-867.5" y="54.5" class="st1" width="10" height="1.5"/>
			<rect x="-871" y="54.5" class="st1" width="2" height="1.5"/>
			<rect x="-856" y="54.5" class="st1" width="2" height="1.5"/>
			<rect x="-849" y="54.5" class="st1" width="10" height="1.5"/>
			<rect x="-852.5" y="54.5" class="st1" width="2" height="1.5"/>
			<rect x="-837.5" y="54.5" class="st1" width="2" height="1.5"/>
			<rect x="-830.4" y="54.5" class="st1" width="10" height="1.5"/>
			<rect x="-833.9" y="54.5" class="st1" width="2" height="1.5"/>
			<rect x="-818.9" y="54.5" class="st1" width="2" height="1.5"/>
			<rect x="-811.8" y="54.5" class="st1" width="10" height="1.5"/>
			<rect x="-815.4" y="54.5" class="st1" width="2" height="1.5"/>
			<rect x="-800.4" y="54.5" class="st1" width="2" height="1.5"/>
			<rect x="-793.3" y="54.5" class="st1" width="10" height="1.5"/>
			<rect x="-796.8" y="54.5" class="st1" width="2" height="1.5"/>
			<rect x="-781.8" y="54.5" class="st1" width="2" height="1.5"/>
			<rect x="-774.7" y="54.5" class="st1" width="10" height="1.5"/>
			<rect x="-778.2" y="54.5" class="st1" width="2" height="1.5"/>
			<rect x="-763.2" y="54.5" class="st1" width="2" height="1.5"/>
			<rect x="-756.2" y="54.5" class="st1" width="10" height="1.5"/>
			<rect x="-759.7" y="54.5" class="st1" width="2" height="1.5"/>
			<rect x="-744.7" y="54.5" class="st1" width="2" height="1.5"/>
			<rect x="-737.6" y="54.5" class="st1" width="10" height="1.5"/>
			<rect x="-741.1" y="54.5" class="st1" width="2" height="1.5"/>
			<rect x="-726.1" y="54.5" class="st1" width="2" height="1.5"/>
			<rect x="-719" y="54.5" class="st1" width="10" height="1.5"/>
			<rect x="-722.5" y="54.5" class="st1" width="2" height="1.5"/>
			<rect x="-707.5" y="54.5" class="st1" width="2" height="1.5"/>
		</g>
		<g>
			<rect x="-1150.2" y="62.3" class="st1" width="445.5" height="3"/>
		</g>
	</g>
	<g>
		
			<text transform="matrix(1 0 0 1 -1152.2484 273.8049)" class="st0" style="font-family:'JosefinSans'; font-size:115px; letter-spacing:-2;">ARKEON</text>
		
			<text transform="matrix(1 0 0 1 -1155.726 347.5831)" class="st0" style="font-family:'JosefinSans-Light'; font-size:44px; letter-spacing:3;">Live Green. Save Green</text>
		<g>
			<g>
				<rect x="-1150.2" y="286.6" class="st0" width="445.5" height="3"/>
			</g>
		</g>
		<g>
			<g>
				<rect x="-1146" y="295.8" class="st0" width="10" height="1.5"/>
				<rect x="-1149.5" y="295.8" class="st0" width="2" height="1.5"/>
				<rect x="-1134.5" y="295.8" class="st0" width="2" height="1.5"/>
				<rect x="-1127.4" y="295.8" class="st0" width="10" height="1.5"/>
				<rect x="-1130.9" y="295.8" class="st0" width="2" height="1.5"/>
				<rect x="-1115.9" y="295.8" class="st0" width="2" height="1.5"/>
				<rect x="-1108.8" y="295.8" class="st0" width="10" height="1.5"/>
				<rect x="-1112.4" y="295.8" class="st0" width="2" height="1.5"/>
				<rect x="-1097.4" y="295.8" class="st0" width="2" height="1.5"/>
				<rect x="-1090.3" y="295.8" class="st0" width="10" height="1.5"/>
				<rect x="-1093.8" y="295.8" class="st0" width="2" height="1.5"/>
				<rect x="-1078.8" y="295.8" class="st0" width="2" height="1.5"/>
				<rect x="-1071.7" y="295.8" class="st0" width="10" height="1.5"/>
				<rect x="-1075.2" y="295.8" class="st0" width="2" height="1.5"/>
				<rect x="-1060.2" y="295.8" class="st0" width="2" height="1.5"/>
				<rect x="-1053.2" y="295.8" class="st0" width="10" height="1.5"/>
				<rect x="-1056.7" y="295.8" class="st0" width="2" height="1.5"/>
				<rect x="-1041.7" y="295.8" class="st0" width="2" height="1.5"/>
				<rect x="-1034.6" y="295.8" class="st0" width="10" height="1.5"/>
				<rect x="-1038.1" y="295.8" class="st0" width="2" height="1.5"/>
				<rect x="-1023.1" y="295.8" class="st0" width="2" height="1.5"/>
				<rect x="-1016" y="295.8" class="st0" width="10" height="1.5"/>
				<rect x="-1019.5" y="295.8" class="st0" width="2" height="1.5"/>
				<rect x="-1004.5" y="295.8" class="st0" width="2" height="1.5"/>
				<rect x="-997.5" y="295.8" class="st0" width="10" height="1.5"/>
				<rect x="-1001" y="295.8" class="st0" width="2" height="1.5"/>
				<rect x="-986" y="295.8" class="st0" width="2" height="1.5"/>
				<rect x="-978.9" y="295.8" class="st0" width="10" height="1.5"/>
				<rect x="-982.4" y="295.8" class="st0" width="2" height="1.5"/>
				<rect x="-967.4" y="295.8" class="st0" width="2" height="1.5"/>
				<rect x="-960.3" y="295.8" class="st0" width="10" height="1.5"/>
				<rect x="-963.9" y="295.8" class="st0" width="2" height="1.5"/>
				<rect x="-948.9" y="295.8" class="st0" width="2" height="1.5"/>
				<rect x="-941.8" y="295.8" class="st0" width="10" height="1.5"/>
				<rect x="-945.3" y="295.8" class="st0" width="2" height="1.5"/>
				<rect x="-930.3" y="295.8" class="st0" width="2" height="1.5"/>
				<rect x="-923.2" y="295.8" class="st0" width="10" height="1.5"/>
				<rect x="-926.7" y="295.8" class="st0" width="2" height="1.5"/>
				<rect x="-911.7" y="295.8" class="st0" width="2" height="1.5"/>
				<rect x="-904.7" y="295.8" class="st0" width="10" height="1.5"/>
				<rect x="-908.2" y="295.8" class="st0" width="2" height="1.5"/>
				<rect x="-893.2" y="295.8" class="st0" width="2" height="1.5"/>
				<rect x="-886.1" y="295.8" class="st0" width="10" height="1.5"/>
				<rect x="-889.6" y="295.8" class="st0" width="2" height="1.5"/>
				<rect x="-874.6" y="295.8" class="st0" width="2" height="1.5"/>
				<rect x="-867.5" y="295.8" class="st0" width="10" height="1.5"/>
				<rect x="-871" y="295.8" class="st0" width="2" height="1.5"/>
				<rect x="-856" y="295.8" class="st0" width="2" height="1.5"/>
				<rect x="-849" y="295.8" class="st0" width="10" height="1.5"/>
				<rect x="-852.5" y="295.8" class="st0" width="2" height="1.5"/>
				<rect x="-837.5" y="295.8" class="st0" width="2" height="1.5"/>
				<rect x="-830.4" y="295.8" class="st0" width="10" height="1.5"/>
				<rect x="-833.9" y="295.8" class="st0" width="2" height="1.5"/>
				<rect x="-818.9" y="295.8" class="st0" width="2" height="1.5"/>
				<rect x="-811.8" y="295.8" class="st0" width="10" height="1.5"/>
				<rect x="-815.4" y="295.8" class="st0" width="2" height="1.5"/>
				<rect x="-800.4" y="295.8" class="st0" width="2" height="1.5"/>
				<rect x="-793.3" y="295.8" class="st0" width="10" height="1.5"/>
				<rect x="-796.8" y="295.8" class="st0" width="2" height="1.5"/>
				<rect x="-781.8" y="295.8" class="st0" width="2" height="1.5"/>
				<rect x="-774.7" y="295.8" class="st0" width="10" height="1.5"/>
				<rect x="-778.2" y="295.8" class="st0" width="2" height="1.5"/>
				<rect x="-763.2" y="295.8" class="st0" width="2" height="1.5"/>
				<rect x="-756.2" y="295.8" class="st0" width="10" height="1.5"/>
				<rect x="-759.7" y="295.8" class="st0" width="2" height="1.5"/>
				<rect x="-744.7" y="295.8" class="st0" width="2" height="1.5"/>
				<rect x="-737.6" y="295.8" class="st0" width="10" height="1.5"/>
				<rect x="-741.1" y="295.8" class="st0" width="2" height="1.5"/>
				<rect x="-726.1" y="295.8" class="st0" width="2" height="1.5"/>
				<rect x="-719" y="295.8" class="st0" width="10" height="1.5"/>
				<rect x="-722.5" y="295.8" class="st0" width="2" height="1.5"/>
				<rect x="-707.5" y="295.8" class="st0" width="2" height="1.5"/>
			</g>
		</g>
		<g>
			<g>
				<rect x="-1150.2" y="303.6" class="st0" width="445.5" height="3"/>
			</g>
		</g>
	</g>
</g>
<g id="Layer_2">
	<g>
		<text transform="matrix(1 0 0 1 72.5325 296.5542)" class="st1 st2 st3 st4">Arkeon Energy</text>
		<g>
			<path class="st5" d="M250.8,197.7c-3.8,10.8-10.3,20.6-18.6,28.3c-1.2,1.1-1.3,2.9-0.2,4.1l6.7,7.8c1.1,1.3,3,1.4,4.3,0.3
				c10.4-9.6,18.5-21.8,23.2-35.1c4.7-13.3,6.2-27.8,4.2-41.8c-0.2-1.7-1.8-2.8-3.5-2.5l-10.2,1.8c-1.6,0.3-2.6,1.8-2.4,3.4
				C255.8,175.3,254.6,186.9,250.8,197.7z"/>
			<path class="st5" d="M223.1,187.9l-0.5,1.3c-0.2,0.4-0.4,0.8-0.5,1.3c-0.3,0.9-0.8,1.7-1.1,2.5c-0.9,1.6-1.7,3.2-2.8,4.7
				c-1.5,2.3-3.3,4.3-5.2,6.2c-1.1,1.1-1.2,2.9-0.2,4.1l6.7,7.9c1.1,1.3,3.1,1.4,4.3,0.2c6.5-6.3,11.6-14,14.6-22.6
				c3-8.5,4.1-17.8,3-26.8c-0.2-1.7-1.8-2.9-3.5-2.6l-10.2,1.8c-1.5,0.3-2.6,1.7-2.4,3.2C226.1,175.3,225.3,181.8,223.1,187.9z"/>
			<path class="st6" d="M227,117.1c0.6,0.5,1.2,0.9,1.8,1.4l1.8,1.5l1.7,1.6l0.9,0.8l0.8,0.8l1.6,1.7l1.5,1.7c1,1.1,2,2.4,2.9,3.6
				c3.2,4.1,5.9,8.6,8.1,13.4c0.7,1.4,2.4,2.1,3.8,1.5l9.5-4c1.6-0.7,2.3-2.5,1.6-4c-2.8-6-6.2-11.6-10.1-16.8
				c-1.2-1.5-2.3-3-3.6-4.4c-0.6-0.7-1.3-1.4-1.9-2.1l-2-2l-1-1l-1-1l-2.1-1.9l-2.2-1.8c-0.7-0.6-1.5-1.2-2.2-1.8
				c-11.2-8.7-24.6-14.5-38.5-16.9c-1.7-0.3-3.2,0.9-3.5,2.5l-1.4,10.2c-0.2,1.6,0.9,3,2.4,3.3C207.2,105.4,218,110.1,227,117.1z"/>
			<path class="st6" d="M229.8,138.1c-0.8-1-1.5-2-2.4-2.9l-1.3-1.4l-1.3-1.4l-0.6-0.6c0,0-0.1-0.1-0.1-0.1l-0.6-0.6l-1.4-1.3
				l-1.5-1.2c-0.5-0.4-1-0.8-1.5-1.2c-7.1-5.6-15.7-9.3-24.5-11c-1.7-0.3-3.3,0.8-3.6,2.5l-1.4,10.2c-0.2,1.5,0.8,3,2.3,3.3
				c6.3,1.3,12.3,4,17.3,7.9c0.4,0.3,0.7,0.6,1.1,0.8l1,0.8c0,0,0.1,0.1,0.1,0.1l0.9,0.9l0.4,0.4c0,0,0.1,0.1,0.1,0.1l0.4,0.4
				l0.9,0.9c0,0,0.1,0.1,0.1,0.1l0.8,1c0.6,0.7,1.2,1.4,1.7,2.1c1.7,2.2,3.1,4.5,4.4,7c0.7,1.4,2.4,2,3.8,1.4l9.5-4
				c1.6-0.7,2.3-2.5,1.5-4C234.3,144.8,232.2,141.3,229.8,138.1z"/>
			<path class="st7" d="M117,116.5c-4.3,5-8,10.5-11.1,16.3c-0.8,1.5-0.2,3.3,1.3,4.1l9.3,4.5c1.4,0.7,3.2,0.1,3.9-1.3
				c2.5-4.6,5.4-8.9,8.8-12.9c4-4.7,8.7-8.8,13.8-12.3c5.1-3.5,10.6-6.3,16.5-8.4c4.9-1.7,10-3,15.2-3.6c1.6-0.2,2.8-1.6,2.6-3.2
				l-0.8-10.3c-0.1-1.7-1.6-2.9-3.3-2.7c-6.5,0.7-13,2.3-19.2,4.5c-7.2,2.6-14,6.1-20.2,10.3C127.7,105.6,121.9,110.7,117,116.5z"/>
			<path class="st7" d="M163.9,118.6c-4.8,1.7-9.3,4-13.5,6.9c-4.2,2.9-8,6.2-11.3,10.1c-2.6,3-4.9,6.3-6.8,9.8
				c-0.8,1.5-0.3,3.4,1.3,4.1l9.3,4.5c1.4,0.7,3.1,0.2,3.9-1.2c3.1-5.5,7.5-10.3,12.8-14c3.1-2.1,6.3-3.7,9.7-5
				c2.6-0.9,5.2-1.6,7.9-2c1.5-0.2,2.6-1.6,2.5-3.2l-0.8-10.3c-0.1-1.7-1.7-2.9-3.4-2.7C171.6,116.4,167.7,117.3,163.9,118.6z"/>
			<path class="st8" d="M122.4,210.8c-3.2-5.3-5.8-11-7.5-16.9c-3.3-11-3.7-22.7-1.6-33.9c0.3-1.6-0.7-3.1-2.2-3.5l-10.1-2.4
				c-1.6-0.4-3.3,0.7-3.6,2.3c-2.8,13.9-2.2,28.4,1.9,42c2.1,7.3,5.3,14.3,9.2,20.8c3.4,5.6,7.4,10.8,12,15.5c1.2,1.2,3.1,1.2,4.3,0
				l7.2-7.4c1.1-1.2,1.1-3,0-4.1C128.3,219.4,125.1,215.3,122.4,210.8z"/>
			<path class="st8" d="M147.4,195.6c-1.9-3.2-3.4-6.5-4.4-10c-1.8-6.1-2.2-12.6-1.1-18.9c0.3-1.5-0.8-3-2.3-3.4l-10.1-2.4
				c-1.7-0.4-3.3,0.7-3.6,2.4c-1.6,8.9-1.1,18.2,1.4,26.9c1.4,4.9,3.5,9.5,6.1,13.8c2.1,3.4,4.6,6.7,7.3,9.6c1.2,1.2,3.1,1.2,4.3,0
				l7.2-7.5c1.1-1.1,1.1-2.9,0.1-4C150.5,200.2,148.9,197.9,147.4,195.6z"/>
			<path class="st9" d="M181.5,245.1l-1.2,0l-1.2-0.1l-2.3-0.2c-1.5-0.2-3.1-0.3-4.6-0.6c-3.1-0.4-6.1-1.2-9-2
				c-5-1.5-9.9-3.5-14.4-6c-1.4-0.8-3.2-0.3-4,1l-5.4,8.8c-0.9,1.4-0.4,3.3,1.1,4.1c5.7,3.2,11.8,5.8,18.1,7.6
				c3.6,1,7.3,1.9,11.1,2.5c1.9,0.3,3.8,0.5,5.6,0.7l2.8,0.2l1.4,0.1l1.4,0c14.1,0.5,28.4-2.7,41.1-8.9c1.5-0.7,2.1-2.6,1.3-4.1
				l-4.9-9.1c-0.8-1.4-2.5-2-3.9-1.3C204.4,243,192.9,245.5,181.5,245.1z"/>
			<path class="st9" d="M174.3,231.4c1.2,0.2,2.5,0.3,3.8,0.5l1.9,0.1l0.9,0.1l0.9,0c9.1,0.3,18.2-1.6,26.4-5.5
				c1.5-0.7,2.1-2.6,1.3-4.1l-4.9-9.1c-0.7-1.4-2.4-1.9-3.8-1.3c0,0,0,0,0,0l-1.2,0.5c-0.1,0-0.1,0-0.2,0.1l-1.2,0.5l-0.5,0.2
				c-0.1,0-0.1,0-0.2,0.1l-0.6,0.2l-1.2,0.4c-0.1,0-0.1,0-0.2,0l-1.2,0.3l-0.6,0.2c-0.1,0-0.1,0-0.2,0l-0.6,0.1l-1.2,0.3
				c-0.1,0-0.1,0-0.2,0l-1.3,0.2l-0.6,0.1c-0.1,0-0.1,0-0.2,0l-0.6,0.1l-1.3,0.2c-0.1,0-0.1,0-0.2,0l-1.3,0.1l-0.6,0
				c-0.1,0-0.1,0-0.2,0l-0.6,0l-1.3,0c-0.1,0-0.1,0-0.2,0l-1.3,0l-0.6,0c-0.1,0-0.1,0-0.2,0l-0.6,0l-1.3-0.1c-0.1,0-0.1,0-0.2,0
				c-0.9-0.1-1.8-0.2-2.6-0.3c-1.8-0.3-3.6-0.7-5.4-1.2c-2.6-0.8-5.2-1.8-7.6-3.1c-1.4-0.7-3.1-0.2-3.9,1.1l-5.4,8.8
				c-0.9,1.5-0.4,3.4,1.2,4.2c3.5,1.9,7.3,3.4,11.1,4.5C169.3,230.4,171.8,231,174.3,231.4z"/>
			
				<ellipse transform="matrix(0.4327 -0.9015 0.9015 0.4327 -52.348 263.2953)" class="st10" cx="183" cy="173.2" rx="25.1" ry="25.1"/>
		</g>
	</g>
	<g>
		<text transform="matrix(1 0 0 1 537.664 246.6702)" class="st2" style="font-size:20.2654px;">Arkeon Energy</text>
		<g>
			<path class="st5" d="M647.1,185.9c-2.3,6.6-6.3,12.6-11.4,17.4c-0.7,0.7-0.8,1.8-0.1,2.5l4.1,4.8c0.7,0.8,1.9,0.9,2.6,0.2
				c6.4-5.9,11.4-13.4,14.3-21.6c2.9-8.2,3.8-17.1,2.6-25.7c-0.1-1-1.1-1.7-2.1-1.5l-6.2,1.1c-1,0.2-1.6,1.1-1.5,2.1
				C650.2,172.2,649.4,179.3,647.1,185.9z"/>
			<path class="st5" d="M630.2,179.9l-0.3,0.8c-0.1,0.3-0.2,0.5-0.3,0.8c-0.2,0.5-0.5,1-0.7,1.5c-0.5,1-1.1,2-1.7,2.9
				c-0.9,1.4-2,2.7-3.2,3.8c-0.7,0.7-0.7,1.8-0.1,2.5l4.1,4.8c0.7,0.8,1.9,0.8,2.7,0.1c4-3.8,7.1-8.6,9-13.9
				c1.9-5.2,2.5-10.9,1.8-16.4c-0.1-1-1.1-1.8-2.1-1.6l-6.2,1.1c-0.9,0.2-1.6,1-1.5,2C631.9,172.2,631.5,176.2,630.2,179.9z"/>
			<path class="st6" d="M632.5,136.5c0.4,0.3,0.8,0.6,1.1,0.9l1.1,0.9l1,1l0.5,0.5l0.5,0.5l1,1l0.9,1.1c0.6,0.7,1.2,1.5,1.8,2.2
				c2,2.5,3.6,5.3,5,8.2c0.4,0.9,1.5,1.3,2.4,0.9l5.9-2.5c1-0.4,1.4-1.5,1-2.5c-1.7-3.7-3.8-7.1-6.2-10.3c-0.7-0.9-1.4-1.8-2.2-2.7
				c-0.4-0.4-0.8-0.9-1.2-1.3l-1.2-1.3l-0.6-0.6l-0.6-0.6l-1.3-1.2l-1.3-1.1c-0.4-0.4-0.9-0.7-1.4-1.1c-6.9-5.3-15.1-8.9-23.6-10.4
				c-1-0.2-2,0.5-2.1,1.6L612,126c-0.1,1,0.5,1.9,1.5,2C620.4,129.3,627,132.2,632.5,136.5z"/>
			<path class="st6" d="M634.2,149.4c-0.5-0.6-1-1.2-1.5-1.8l-0.8-0.9l-0.8-0.8l-0.4-0.4c0,0,0,0-0.1-0.1l-0.4-0.4l-0.9-0.8
				l-0.9-0.7c-0.3-0.3-0.6-0.5-0.9-0.7c-4.4-3.4-9.6-5.7-15.1-6.8c-1-0.2-2,0.5-2.2,1.5l-0.9,6.3c-0.1,0.9,0.5,1.8,1.4,2
				c3.8,0.8,7.5,2.4,10.6,4.8c0.2,0.2,0.4,0.3,0.7,0.5l0.6,0.5c0,0,0.1,0,0.1,0.1l0.6,0.5l0.3,0.2c0,0,0.1,0.1,0.1,0.1l0.2,0.3
				l0.6,0.6c0,0,0,0,0.1,0.1l0.5,0.6c0.4,0.4,0.7,0.9,1.1,1.3c1,1.3,1.9,2.8,2.7,4.3c0.4,0.9,1.5,1.2,2.3,0.8l5.9-2.5
				c1-0.4,1.4-1.5,0.9-2.5C637,153.5,635.7,151.3,634.2,149.4z"/>
			<path class="st7" d="M564.9,136.1c-2.6,3.1-4.9,6.4-6.8,10c-0.5,0.9-0.1,2,0.8,2.5l5.7,2.8c0.9,0.4,2,0.1,2.4-0.8
				c1.5-2.8,3.3-5.5,5.4-7.9c2.5-2.9,5.4-5.4,8.5-7.6c3.1-2.1,6.5-3.9,10.1-5.2c3-1.1,6.2-1.8,9.3-2.2c1-0.1,1.7-1,1.6-2l-0.5-6.3
				c-0.1-1-1-1.8-2-1.7c-4,0.5-8,1.4-11.8,2.7c-4.4,1.6-8.6,3.7-12.4,6.3C571.5,129.4,568,132.5,564.9,136.1z"/>
			<path class="st7" d="M593.8,137.4c-2.9,1-5.7,2.5-8.3,4.2c-2.6,1.8-4.9,3.8-6.9,6.2c-1.6,1.9-3,3.9-4.2,6
				c-0.5,0.9-0.2,2.1,0.8,2.5l5.7,2.8c0.9,0.4,1.9,0.1,2.4-0.7c1.9-3.4,4.6-6.3,7.9-8.6c1.9-1.3,3.9-2.3,6-3.1
				c1.6-0.5,3.2-1,4.8-1.2c0.9-0.1,1.6-1,1.5-2l-0.5-6.3c-0.1-1.1-1-1.8-2.1-1.7C598.5,136,596.1,136.6,593.8,137.4z"/>
			<path class="st8" d="M568.3,194c-1.9-3.3-3.5-6.7-4.6-10.4c-2-6.7-2.3-13.9-1-20.8c0.2-1-0.4-1.9-1.4-2.1l-6.2-1.5
				c-1-0.2-2,0.4-2.2,1.4c-1.7,8.5-1.3,17.4,1.1,25.8c1.3,4.5,3.3,8.8,5.6,12.8c2.1,3.4,4.6,6.6,7.4,9.5c0.7,0.7,1.9,0.7,2.6,0
				l4.4-4.6c0.7-0.7,0.7-1.8,0-2.5C571.9,199.3,570,196.8,568.3,194z"/>
			<path class="st8" d="M583.7,184.7c-1.1-1.9-2.1-4-2.7-6.1c-1.1-3.7-1.3-7.8-0.7-11.6c0.2-0.9-0.5-1.8-1.4-2.1l-6.2-1.5
				c-1-0.2-2,0.4-2.2,1.5c-1,5.5-0.7,11.2,0.9,16.5c0.9,3,2.2,5.8,3.8,8.5c1.3,2.1,2.8,4.1,4.5,5.9c0.7,0.8,1.9,0.8,2.6,0l4.4-4.6
				c0.7-0.7,0.7-1.8,0.1-2.5C585.6,187.5,584.5,186.1,583.7,184.7z"/>
			<path class="st9" d="M604.6,215.1l-0.7,0l-0.7,0l-1.4-0.1c-0.9-0.1-1.9-0.2-2.8-0.4c-1.9-0.3-3.7-0.7-5.5-1.2
				c-3.1-0.9-6.1-2.1-8.9-3.7c-0.9-0.5-2-0.2-2.5,0.6l-3.3,5.4c-0.5,0.9-0.2,2,0.7,2.5c3.5,2,7.3,3.5,11.1,4.7
				c2.2,0.6,4.5,1.2,6.8,1.5c1.1,0.2,2.3,0.3,3.5,0.4l1.7,0.1l0.9,0.1l0.9,0c8.7,0.3,17.5-1.7,25.3-5.5c0.9-0.5,1.3-1.6,0.8-2.5
				l-3-5.6c-0.5-0.9-1.5-1.2-2.4-0.8C618.6,213.8,611.6,215.3,604.6,215.1z"/>
			<path class="st9" d="M600.2,206.7c0.8,0.1,1.5,0.2,2.3,0.3l1.2,0.1l0.6,0l0.6,0c5.6,0.2,11.2-1,16.2-3.4c0.9-0.4,1.3-1.6,0.8-2.5
				l-3-5.6c-0.4-0.8-1.4-1.2-2.3-0.8c0,0,0,0,0,0l-0.7,0.3c0,0-0.1,0-0.1,0l-0.7,0.3l-0.3,0.1c0,0-0.1,0-0.1,0l-0.3,0.1l-0.7,0.3
				c0,0-0.1,0-0.1,0l-0.8,0.2l-0.3,0.1c0,0-0.1,0-0.1,0l-0.4,0.1l-0.8,0.2c0,0-0.1,0-0.1,0l-0.8,0.1l-0.4,0.1c0,0-0.1,0-0.1,0
				l-0.4,0l-0.8,0.1c0,0-0.1,0-0.1,0l-0.8,0.1l-0.4,0c0,0-0.1,0-0.1,0l-0.4,0l-0.8,0c0,0-0.1,0-0.1,0l-0.8,0l-0.4,0c0,0-0.1,0-0.1,0
				l-0.4,0l-0.8-0.1c0,0-0.1,0-0.1,0c-0.5-0.1-1.1-0.1-1.6-0.2c-1.1-0.2-2.2-0.4-3.3-0.7c-1.6-0.5-3.2-1.1-4.7-1.9
				c-0.8-0.4-1.9-0.1-2.4,0.7l-3.3,5.4c-0.5,0.9-0.2,2.1,0.7,2.6c2.2,1.2,4.5,2.1,6.8,2.8C597.1,206.1,598.6,206.4,600.2,206.7z"/>
			
				<ellipse transform="matrix(0.4327 -0.9015 0.9015 0.4327 189.4028 642.8817)" class="st10" cx="605.5" cy="170.9" rx="15.4" ry="15.4"/>
		</g>
	</g>
</g>
<g id="Layer_3">
	
		<rect x="-178.3" y="-87.9" transform="matrix(6.123234e-17 -1 1 6.123234e-17 -93.0875 -207.051)" class="st8" width="56.5" height="61.9"/>
	
		<rect x="-178.3" y="-10.7" transform="matrix(6.123234e-17 -1 1 6.123234e-17 -170.3065 -129.832)" class="st5" width="56.5" height="61.9"/>
	
		<rect x="-178.3" y="66.5" transform="matrix(6.123234e-17 -1 1 6.123234e-17 -247.5255 -52.613)" class="st7" width="56.5" height="61.9"/>
	
		<rect x="-178.3" y="143.7" transform="matrix(6.123234e-17 -1 1 6.123234e-17 -324.7445 24.606)" class="st9" width="56.5" height="61.9"/>
	
		<rect x="-178.3" y="221" transform="matrix(6.123234e-17 -1 1 6.123234e-17 -401.9635 101.825)" class="st6" width="56.5" height="61.9"/>
	
		<rect x="-178.3" y="298.2" transform="matrix(6.123234e-17 -1 1 6.123234e-17 -479.1826 179.044)" class="st11" width="56.5" height="61.9"/>
	
		<rect x="-178.3" y="375.4" transform="matrix(6.123234e-17 -1 1 6.123234e-17 -556.4016 256.263)" class="st12" width="56.5" height="61.9"/>
</g>
</svg>
