<?xml version="1.0" encoding="iso-8859-1"?>
<!-- Generator: Adobe Illustrator 17.1.0, SVG Export Plug-In . SVG Version: 6.00 Build 0)  -->
<!DOCTYPE svg PUBLIC "-//W3C//DTD SVG 1.1//EN" "http://www.w3.org/Graphics/SVG/1.1/DTD/svg11.dtd">
<svg xmlns="http://www.w3.org/2000/svg" xmlns:xlink="http://www.w3.org/1999/xlink" version="1.1" id="Capa_1" x="0px" y="0px" viewBox="0 0 392.617 392.617" style="enable-background:new 0 0 392.617 392.617;" xml:space="preserve" width="512px" height="512px">
<path d="M365.808,291.473c-15.463-21.9-31.381-44.057-46.775-65.484c-7.794-10.848-15.587-21.695-23.354-32.553l-17.613-24.626  c-0.262-0.44-0.56-0.856-0.889-1.242l-39.402-55.089c-1.867-2.609-4.979-4.03-8.181-3.723c-21.797,2.094-44.753,2.096-66.646-0.003  c-3.183-0.303-6.296,1.105-8.165,3.705c-11.509,16.004-23.12,32.309-34.35,48.076c-7.814,10.971-15.628,21.942-23.468,32.9  l-71.028,99.295c-8.906,12.713-16.597,23.691-11.631,33.286c5.016,9.688,18.457,10.219,41.784,10.321  c13.719,0.06,43.914,0.084,63.707,0.091v37.324c0,4.971,4.029,9,9,9c0.078,0,0.157-0.001,0.234-0.003h218.263v0.868  c0,4.971,4.029,9,9,9s9-4.029,9-9v-19.736c0-4.971-4.029-9-9-9s-9,4.029-9,9v0.868H137.798v-37.318c0,0,0,0,0-0.001  c0-0.005,0-0.01,0-0.015s0-0.01,0-0.014c0-0.006,0-0.013,0-0.019c0-0.003,0-0.007,0-0.011c0-0.007,0-0.014,0-0.021  c0-0.003,0-0.006,0-0.009c0-0.008-0.001-0.015-0.001-0.022c0-0.002,0-0.004,0-0.006c0-0.009,0-0.017,0-0.025  c0-0.001,0-0.003,0-0.004c0-0.009,0-0.019-0.001-0.027c0-0.001,0-0.001,0-0.002c-0.069-3.7-2.373-6.854-5.618-8.17  c-0.001,0-0.002-0.001-0.003-0.001c-0.008-0.003-0.016-0.007-0.022-0.01c0,0-0.002,0-0.003-0.001  c-0.008-0.003-0.016-0.006-0.023-0.009c-0.001-0.001-0.001-0.001-0.002-0.001c-0.007-0.003-0.014-0.006-0.021-0.009  c-0.001,0-0.003-0.001-0.004-0.002c-0.008-0.003-0.015-0.006-0.022-0.009c-0.001,0-0.002,0-0.003-0.001  c-0.008-0.003-0.015-0.005-0.021-0.008c-0.002-0.001-0.003-0.001-0.005-0.002c-0.006-0.003-0.012-0.005-0.019-0.007  c-0.002-0.001-0.004-0.002-0.007-0.003c-0.005-0.002-0.011-0.004-0.016-0.006c-0.003-0.002-0.007-0.003-0.01-0.004  c-0.005-0.002-0.009-0.004-0.014-0.005c-0.004-0.002-0.009-0.004-0.013-0.005c-0.003-0.002-0.007-0.003-0.011-0.005  c-0.005-0.001-0.01-0.003-0.015-0.005c-0.003-0.001-0.006-0.002-0.008-0.003c-0.006-0.002-0.013-0.005-0.019-0.007  c-0.002-0.001-0.005-0.002-0.007-0.003c-0.007-0.002-0.013-0.004-0.019-0.007c-0.003-0.001-0.006-0.002-0.01-0.003  c-0.006-0.002-0.011-0.004-0.016-0.006c-0.003-0.001-0.005-0.002-0.008-0.003c-0.006-0.002-0.012-0.005-0.019-0.007  c-0.001,0-0.003-0.001-0.004-0.001c-0.008-0.003-0.015-0.006-0.022-0.008c0-0.001-0.001-0.001-0.001-0.001  c-0.017-0.006-0.034-0.012-0.051-0.018c-0.001-0.001-0.001-0.001-0.002-0.001c-0.876-0.306-1.813-0.479-2.788-0.497  c-0.008-0.001-0.02-0.001-0.029-0.001c-0.006,0.001-0.02,0-0.029,0c-0.011-0.002-0.019,0-0.028-0.001  c-0.01,0.001-0.02,0.001-0.029,0c-0.01,0-0.018,0-0.029,0c-0.008,0.001-0.02,0-0.028,0c-25.236-0.002-58.729-0.032-72.629-0.093  c-5.452-0.023-18.479-0.081-24.478-1.206c2.103-4.246,7.085-11.358,8.937-14.001l70.977-99.223  c5.087-7.11,10.163-14.227,15.235-21.344c21.284,2.492,48.479,3.97,73.33,3.97c22.592,0,44.729-1.201,65.886-3.571l14.981,20.945  c7.775,10.869,15.576,21.727,23.377,32.584c15.373,21.397,31.27,43.524,46.689,65.364c2.082,2.947,7.621,10.793,9.828,15.325  c-5.575,1.031-17.207,1.116-22.659,1.156H167.006c-4.971,0-9,4.029-9,9s4.029,9,9,9h171.333c22.234-0.162,35.054-0.72,39.967-10.287  C382.985,316.937,376.706,306.907,365.808,291.473z M200.171,168.533c-20.475,0-42.542-1.025-61.339-2.805  c9.066-12.729,18.344-25.742,27.574-38.6c19.715,1.599,40.072,1.599,59.719,0.004l27.873,38.97  C236.579,167.717,218.537,168.533,200.171,168.533z M187.298,80.136c0-28,18.276-37.037,31.621-43.636  c13.007-6.432,21.6-10.681,21.6-27.5c0-4.971,4.029-9,9-9s9,4.029,9,9c0,27.999-18.276,37.036-31.621,43.635  c-13.007,6.432-21.6,10.681-21.6,27.501c0,4.971-4.029,9-9,9S187.298,85.106,187.298,80.136z" fill="#D80027"/>
<g>
</g>
<g>
</g>
<g>
</g>
<g>
</g>
<g>
</g>
<g>
</g>
<g>
</g>
<g>
</g>
<g>
</g>
<g>
</g>
<g>
</g>
<g>
</g>
<g>
</g>
<g>
</g>
<g>
</g>
</svg>
