<?xml version="1.0" encoding="iso-8859-1"?>
<!-- Generator: Adobe Illustrator 19.0.0, SVG Export Plug-In . SVG Version: 6.00 Build 0)  -->
<svg xmlns="http://www.w3.org/2000/svg" xmlns:xlink="http://www.w3.org/1999/xlink" version="1.1" id="Layer_1" x="0px" y="0px" viewBox="0 0 512.2 512.2" style="enable-background:new 0 0 512.2 512.2;" xml:space="preserve" width="512px" height="512px">
<g>
	<g>
		<path d="M345.3,324.789c-32.1,0.2-62.3-12-85.2-34.5c-18.8-18.4-30.7-41.9-34.7-67.4l-1.4-36.7l0.3,0.2    c0.4-18.2,7.7-35.3,20.5-48.3c10.7-10.9,25-16.9,40.3-17c15.3-0.1,29.7,5.8,40.5,16.5l-20.9,21.3c-5.2-5.1-12-7.9-19.2-7.8    c-7.3,0-14,2.9-19.1,8.1c-7.8,7.9-12,18.3-11.9,29.3c0.1,10.7,4.2,20.8,11.6,28.5c0.2,0.2,0.4,0.5,0.7,0.7    c4.6,4.5,9.7,8.1,15.1,10.9c22.8,11.5,51.4,7.7,70.3-11.4c33.2-33.6,32.9-88-0.8-121.3c-47-46.4-122.9-45.9-169.3,1.1    c-28.9,29.3-45.8,68-47.5,109c0.3,31.7-11.7,61.5-33.9,84.1c-22.3,22.7-52,35.3-83.9,35.5l-16.8,0.1v105.7l15.4-0.1    c16.6-0.1,24,3.6,33.5,8.2c10.8,5.3,23,11.3,46,11.3c0.3,0,0.6,0,0.9,0c23.6-0.2,35.9-6.4,46.8-11.9c9.4-4.8,16.8-8.5,33.4-8.6    c16.5-0.1,24,3.6,33.5,8.2c10.9,5.4,23.3,11.4,46.9,11.3c23.6-0.2,35.9-6.4,46.8-11.9c9.4-4.8,16.8-8.5,33.4-8.6    c16.5-0.1,24,3.6,33.5,8.2c10.9,5.4,23.3,11.4,46.9,11.3c23.6-0.2,35.9-6.4,46.8-11.9c9.4-4.8,16.8-8.5,33.4-8.6l15-0.1v-103.5    L345.3,324.789z" fill="#02c2a9"/>
	</g>
</g>
<g>
</g>
<g>
</g>
<g>
</g>
<g>
</g>
<g>
</g>
<g>
</g>
<g>
</g>
<g>
</g>
<g>
</g>
<g>
</g>
<g>
</g>
<g>
</g>
<g>
</g>
<g>
</g>
<g>
</g>
</svg>
